<?xml version="1.0" encoding="UTF-8"?>
<svg version="1.1" xmlns="http://www.w3.org/2000/svg" width="261px" height="284px">
<path d="M0 0 C74.25 0 148.5 0 225 0 C225 74.25 225 148.5 225 225 C150.75 225 76.5 225 0 225 C0 150.75 0 76.5 0 0 Z " fill="#668882" transform="translate(0,0)"/>
<path d="M0 0 C3.81489819 0.76617202 5.33808753 2.1606267 8 5 C8.99 5.495 8.99 5.495 10 6 C10 6.99 10 7.98 10 9 C9.113125 9.12375 8.22625 9.2475 7.3125 9.375 C2.31873864 11.82476973 1.07452411 16.02481387 -1 21 C1.31 21 3.62 21 6 21 C5.69128878 22.79232337 5.37790936 24.58384321 5.0625 26.375 C4.88847656 27.37273437 4.71445313 28.37046875 4.53515625 29.3984375 C4 32 4 32 3 34 C2.34 34 1.68 34 1 34 C0.896875 34.9075 0.79375 35.815 0.6875 36.75 C-0.00649813 40.03071844 -0.70085668 41.60889095 -3 44 C-3.66 44 -4.32 44 -5 44 C-5 44.66 -5 45.32 -5 46 C-5.66 46 -6.32 46 -7 46 C-6.65555119 48.47266765 -6.65555119 48.47266765 -6 51 C-5.01 51.495 -5.01 51.495 -4 52 C-4.875 55.875 -4.875 55.875 -6 57 C-7.56547048 57.09326716 -9.13512772 57.11745582 -10.70336914 57.11352539 C-11.70433121 57.11344986 -12.70529327 57.11337433 -13.73658752 57.11329651 C-14.8251152 57.10813522 -15.91364288 57.10297394 -17.03515625 57.09765625 C-18.14354355 57.0962413 -19.25193085 57.09482635 -20.39390564 57.09336853 C-23.95013069 57.08775033 -27.50629383 57.07519475 -31.0625 57.0625 C-33.46679597 57.05748734 -35.87109292 57.05292403 -38.27539062 57.04882812 C-44.18361504 57.03777499 -50.0918031 57.02101917 -56 57 C-56 54.69 -56 52.38 -56 50 C-55.01 50 -54.02 50 -53 50 C-53 48.68 -53 47.36 -53 46 C-53.99 45.67 -54.98 45.34 -56 45 C-56 44.34 -56 43.68 -56 43 C-56.99 42.67 -57.98 42.34 -59 42 C-60.3515625 39.8203125 -60.3515625 39.8203125 -61.625 37.125 C-62.05039063 36.24070313 -62.47578125 35.35640625 -62.9140625 34.4453125 C-65.21151339 29.2719159 -65 27.39486393 -65 21 C-48.83 21 -32.66 21 -16 21 C-15.34 19.68 -14.68 18.36 -14 17 C-13.01 16.67 -12.02 16.34 -11 16 C-10.731875 15.401875 -10.46375 14.80375 -10.1875 14.1875 C-9 12 -9 12 -6.0625 10.25 C-1.95663275 7.23344447 -1.44284697 4.8094899 0 0 Z " fill="#586967" transform="translate(144,64)"/>
<path d="M0 0 C0.99 0.33 1.98 0.66 3 1 C3.0778731 4.19279727 2.98342232 7.09578217 2.4375 10.25 C1.88752302 14.96408842 2.38711705 19.31380271 3 24 C5.475 24.99 5.475 24.99 8 26 C8.33 24.68 8.66 23.36 9 22 C9.7425 21.938125 10.485 21.87625 11.25 21.8125 C14.8185739 20.75814862 15.92245228 19.00090227 18 16 C19.32 16.66 20.64 17.32 22 18 C22 19.32 22 20.64 22 22 C24.97 21.67 27.94 21.34 31 21 C31 25 31 25 29 27.75 C25.86909644 30.09817767 25.53591433 30.25755423 21.9375 30.0625 C18.04951311 29.61214083 18.04951311 29.61214083 15.625 31.6875 C13.8962659 33.9560165 13.8962659 33.9560165 12.9375 36.6875 C12.628125 37.450625 12.31875 38.21375 12 39 C11.01 39.33 10.02 39.66 9 40 C8.67 40.99 8.34 41.98 8 43 C3.05 43 -1.9 43 -7 43 C-7 41.35 -7 39.7 -7 38 C-7.66 38 -8.32 38 -9 38 C-9.66 35.36 -10.32 32.72 -11 30 C-14.40080577 30.10407917 -14.40080577 30.10407917 -18 31 C-19.99083177 33.4251788 -19.99083177 33.4251788 -21 36 C-23.64 35.67 -26.28 35.34 -29 35 C-29.33 35.66 -29.66 36.32 -30 37 C-34.07173231 38.09845922 -37.76397495 38.633086 -41.5625 36.6875 C-43 35 -43 35 -43 33 C-39.91190305 31.23537317 -38.76687864 31 -35 31 C-35 30.01 -35 29.02 -35 28 C-36.093125 28.0825 -37.18625 28.165 -38.3125 28.25 C-42 28 -42 28 -43.9375 26.125 C-45 24 -45 24 -45 22 C-43.33388095 21.957279 -41.66617115 21.95936168 -40 22 C-39.67 22.33 -39.34 22.66 -39 23 C-36.04195427 23.33340471 -36.04195427 23.33340471 -33 23 C-32.34 22.01 -31.68 21.02 -31 20 C-31.66 20 -32.32 20 -33 20 C-34.20272819 17.59454362 -34.10071472 16.05003047 -34.0625 13.375 C-34.04896484 12.14910156 -34.04896484 12.14910156 -34.03515625 10.8984375 C-34.02355469 10.27195312 -34.01195313 9.64546875 -34 9 C-32.68 9 -31.36 9 -30 9 C-30 8.34 -30 7.68 -30 7 C-29.01 7 -28.02 7 -27 7 C-26.67 7.99 -26.34 8.98 -26 10 C-24.68 10.33 -23.36 10.66 -22 11 C-22 14.3 -22 17.6 -22 21 C-21.34 21.33 -20.68 21.66 -20 22 C-20.33 19.69 -20.66 17.38 -21 15 C-18.36 15.66 -15.72 16.32 -13 17 C-13 17.66 -13 18.32 -13 19 C-11.68 19 -10.36 19 -9 19 C-8.505 12.565 -8.505 12.565 -8 6 C-7.01 5.67 -6.02 5.34 -5 5 C-3.29413425 3.37347684 -1.6222454 1.70993434 0 0 Z " fill="#698F77" transform="translate(109,42)"/>
<path d="M0 0 C0.66 0.66 1.32 1.32 2 2 C1.34 2 0.68 2 0 2 C0 3.32 0 4.64 0 6 C0.99 6 1.98 6 3 6 C3.33 5.01 3.66 4.02 4 3 C4.66 3 5.32 3 6 3 C6 4.32 6 5.64 6 7 C6.66 7 7.32 7 8 7 C8 7.66 8 8.32 8 9 C6.02 9 4.04 9 2 9 C3.1490712 10.2981424 3.1490712 10.2981424 6 11 C6.6875 13.0625 6.6875 13.0625 7 15 C7.598125 14.505 8.19625 14.01 8.8125 13.5 C11 12 11 12 14 12 C14 11.34 14 10.68 14 10 C11.525 9.505 11.525 9.505 9 9 C8.67 6.69 8.34 4.38 8 2 C8.66 1.67 9.32 1.34 10 1 C10.33 1.99 10.66 2.98 11 4 C14.27275026 4 16.846632 3.70074844 20 3 C19.34 4.98 18.68 6.96 18 9 C18.66 9.33 19.32 9.66 20 10 C20.680625 8.7625 20.680625 8.7625 21.375 7.5 C21.91125 6.675 22.4475 5.85 23 5 C23.66 5 24.32 5 25 5 C25.33 4.34 25.66 3.68 26 3 C27.32 3.66 28.64 4.32 30 5 C30 5.99 30 6.98 30 8 C28.02 8.33 26.04 8.66 24 9 C24 9.33 24 9.66 24 10 C25.32 10.33 26.64 10.66 28 11 C27.34 12.32 26.68 13.64 26 15 C26.99 15 27.98 15 29 15 C29.1875 17.375 29.1875 17.375 29 20 C28.01 20.66 27.02 21.32 26 22 C25.505 20.515 25.505 20.515 25 19 C23.02 19 21.04 19 19 19 C19 18.34 19 17.68 19 17 C18.34 16.67 17.68 16.34 17 16 C17 17.32 17 18.64 17 20 C17.99 20.33 18.98 20.66 20 21 C19.01 21.33 18.02 21.66 17 22 C17 23.32 17 24.64 17 26 C16.34 26 15.68 26 15 26 C15 24.35 15 22.7 15 21 C14.34 21.33 13.68 21.66 13 22 C12.59270772 24.32156597 12.25561323 26.6568787 12 29 C11.401875 28.835 10.80375 28.67 10.1875 28.5 C7.1187041 27.79856094 4.68011093 28.04652932 1.5625 28.5 C-2 29 -2 29 -6 29 C-5.625 27.0625 -5.625 27.0625 -5 25 C-4.34 24.67 -3.68 24.34 -3 24 C-3.66 22.02 -4.32 20.04 -5 18 C-5.99 18 -6.98 18 -8 18 C-8 16.35 -8 14.7 -8 13 C-7.34 13 -6.68 13 -6 13 C-4.7763932 10.9254644 -4.7763932 10.9254644 -5 8 C-6.32 8 -7.64 8 -9 8 C-8.67 5.69 -8.34 3.38 -8 1 C-5.525 1.99 -5.525 1.99 -3 3 C-2.01 2.01 -1.02 1.02 0 0 Z " fill="#64827D" transform="translate(92,144)"/>
<path d="M0 0 C1.32 0.66 2.64 1.32 4 2 C4 3.32 4 4.64 4 6 C8.455 5.505 8.455 5.505 13 5 C13 9 13 9 11 11.75 C7.86909644 14.09817767 7.53591433 14.25755423 3.9375 14.0625 C0.04951311 13.61214083 0.04951311 13.61214083 -2.375 15.6875 C-4.1037341 17.9560165 -4.1037341 17.9560165 -5.0625 20.6875 C-5.5265625 21.8321875 -5.5265625 21.8321875 -6 23 C-6.99 23.33 -7.98 23.66 -9 24 C-9.33 24.66 -9.66 25.32 -10 26 C-10 25.01 -10 24.02 -10 23 C-9.51917969 22.56042969 -9.03835937 22.12085937 -8.54296875 21.66796875 C-6.37098588 19.32002777 -6.49762147 17.45956493 -6.3125 14.3125 C-6.24675781 13.31863281 -6.18101563 12.32476562 -6.11328125 11.30078125 C-6.07589844 10.54152344 -6.03851563 9.78226563 -6 9 C-8.51164872 9.51721808 -8.51164872 9.51721808 -11 11 C-12.1874326 14.01203333 -12.1874326 14.01203333 -12.6875 17.5 C-13.82860999 23.82860999 -13.82860999 23.82860999 -16 26 C-17.01085436 23.60824639 -18.00879203 21.21238415 -19 18.8125 C-19.28617187 18.13896484 -19.57234375 17.46542969 -19.8671875 16.77148438 C-21.39206299 13.05006206 -22.37610432 10.03528592 -22 6 C-20.68 6 -19.36 6 -18 6 C-17.67 6.66 -17.34 7.32 -17 8 C-15.09821215 8.60061233 -15.09821215 8.60061233 -13 9 C-12.01 9.33 -11.02 9.66 -10 10 C-9.67 8.68 -9.34 7.36 -9 6 C-8.2575 5.938125 -7.515 5.87625 -6.75 5.8125 C-3.1814261 4.75814862 -2.07754772 3.00090227 0 0 Z " fill="#679073" transform="translate(127,58)"/>
<path d="M0 0 C0.33 0.66 0.66 1.32 1 2 C1.61875 2.12375 2.2375 2.2475 2.875 2.375 C5 3 5 3 6.8125 4.75 C8.31690887 7.6004589 7.92250763 8.98088413 7 12 C8.65 12 10.3 12 12 12 C12.33 11.34 12.66 10.68 13 10 C13 11.98 13 13.96 13 16 C11.68 16 10.36 16 9 16 C9.99 16.33 10.98 16.66 12 17 C12.33 17.33 12.66 17.66 13 18 C13.33 16.02 13.66 14.04 14 12 C16.64 12 19.28 12 22 12 C22 12.66 22 13.32 22 14 C20.68 14.33 19.36 14.66 18 15 C17.67 17.64 17.34 20.28 17 23 C16.67 22.34 16.34 21.68 16 21 C13.47266765 20.34444881 13.47266765 20.34444881 11 20 C10.67 21.98 10.34 23.96 10 26 C9.4225 25.814375 8.845 25.62875 8.25 25.4375 C5.79307475 24.95976454 4.35602466 25.24270636 2 26 C2 24.02 2 22.04 2 20 C2.99 19.67 3.98 19.34 5 19 C4.67 18.01 4.34 17.02 4 16 C3.01 16 2.02 16 1 16 C1 16.66 1 17.32 1 18 C0.35747635 20.0078864 -0.30741771 22.00882592 -1 24 C-1.99 23.67 -2.98 23.34 -4 23 C-4 23.99 -4 24.98 -4 26 C-5.98 26 -7.96 26 -10 26 C-9.67 24.68 -9.34 23.36 -9 22 C-7.02 21.67 -5.04 21.34 -3 21 C-3.33 19.02 -3.66 17.04 -4 15 C-4.99 15.495 -4.99 15.495 -6 16 C-7 15 -7 15 -8 12 C-7.030625 11.87625 -6.06125 11.7525 -5.0625 11.625 C-4.051875 11.41875 -3.04125 11.2125 -2 11 C-1.67 10.34 -1.34 9.68 -1 9 C1.97 9.495 1.97 9.495 5 10 C5 8.68 5 7.36 5 6 C4.67 6.66 4.34 7.32 4 8 C1 7 1 7 -0.9375 5.9375 C-3.2293158 4.72413137 -3.2293158 4.72413137 -7 5 C-7 3.68 -7 2.36 -7 1 C-6.401875 1.20625 -5.80375 1.4125 -5.1875 1.625 C-2.71549154 2.30671915 -2.71549154 2.30671915 0 0 Z M7 18 C7 18.66 7 19.32 7 20 C7.66 20 8.32 20 9 20 C9 19.34 9 18.68 9 18 C8.34 18 7.68 18 7 18 Z " fill="#5D7D78" transform="translate(130,147)"/>
<path d="M0 0 C-0.33 0.66 -0.66 1.32 -1 2 C-0.01 2 0.98 2 2 2 C2 1.34 2 0.68 2 0 C5.96 0 9.92 0 14 0 C13.525625 1.19625 13.05125 2.3925 12.5625 3.625 C11.26517227 7.06414238 10.45763049 10.33895604 10 14 C9.67 13.01 9.34 12.02 9 11 C6.36 11 3.72 11 1 11 C0.67 11.66 0.34 12.32 0 13 C-0.66 13 -1.32 13 -2 13 C-2 12.34 -2 11.68 -2 11 C-4.97 11 -7.94 11 -11 11 C-9 3 -9 3 -6 0 C-3.37169607 -1.03539246 -2.55664546 -1.27832273 0 0 Z " fill="#69887C" transform="translate(154,74)"/>
<path d="M0 0 C0.99 0 1.98 0 3 0 C3.33 0.99 3.66 1.98 4 3 C4.66 3 5.32 3 6 3 C6 4 6 5 6 6 C6.33 6.66 6.66 7.32 7 8 C6.34 8 5.68 8 5 8 C5.33 9.65 5.66 11.3 6 13 C6.66 13 7.32 13 8 13 C8 14.98 8 16.96 8 19 C7.443125 18.814375 6.88625 18.62875 6.3125 18.4375 C3.58278055 17.92106659 1.68864419 18.37954365 -1 19 C-4 19 -4 19 -6.5625 18.4375 C-8.99764861 17.74957739 -8.99764861 17.74957739 -11 19 C-12 18 -12 18 -13 15 C-11.02 14.34 -9.04 13.68 -7 13 C-7.7734375 11.9171875 -7.7734375 11.9171875 -8.5625 10.8125 C-10.21442982 7.5804634 -10.06351675 6.38391693 -9 3 C-8.34 3.33 -7.68 3.66 -7 4 C-7 4.99 -7 5.98 -7 7 C-6.67 6.01 -6.34 5.02 -6 4 C-3.69 4 -1.38 4 1 4 C0.67 2.68 0.34 1.36 0 0 Z " fill="#63827D" transform="translate(58,144)"/>
<path d="M0 0 C0.99 0.33 1.98 0.66 3 1 C5.48063781 11.37357631 5.48063781 11.37357631 4 17 C4.66 17 5.32 17 6 17 C6.33 18.98 6.66 20.96 7 23 C6.34 23 5.68 23 5 23 C4.34 21.35 3.68 19.7 3 18 C0.11562221 19.29299694 -1.87219421 20.65941363 -4 23 C-6.0875069 17.12888684 -7.11676533 11.20425181 -6 5 C-4.21759122 2.33482094 -2.90202939 1.59327104 0 0 Z " fill="#6A9077" transform="translate(126,41)"/>
<path d="M0 0 C0.8125 1.6875 0.8125 1.6875 1 4 C-1.25 6.5 -1.25 6.5 -4 9 C-4.43441406 9.70640625 -4.86882812 10.4128125 -5.31640625 11.140625 C-7 13 -7 13 -9.69921875 13.390625 C-11.17841797 13.32101563 -11.17841797 13.32101563 -12.6875 13.25 C-13.68136719 13.21390625 -14.67523438 13.1778125 -15.69921875 13.140625 C-16.83810547 13.07101563 -16.83810547 13.07101563 -18 13 C-17 10 -17 10 -14 8 C-13.505 6.845 -13.01 5.69 -12.5 4.5 C-9.61205061 -2.23854858 -6.22528275 -1.02053816 0 0 Z " fill="#568979" transform="translate(135,72)"/>
<path d="M0 0 C3.6875 -0.3125 3.6875 -0.3125 7 0 C7.66 2.64 8.32 5.28 9 8 C9.66 8 10.32 8 11 8 C11 9.65 11 11.3 11 13 C9.02 13 7.04 13 5 13 C4.34 11.68 3.68 10.36 3 9 C2.03578125 9.02320312 1.0715625 9.04640625 0.078125 9.0703125 C-1.18515625 9.08835937 -2.4484375 9.10640625 -3.75 9.125 C-5.00296875 9.14820312 -6.2559375 9.17140625 -7.546875 9.1953125 C-10.72820492 9.01537302 -12.36521896 8.68998582 -15 7 C-14.01 7 -13.02 7 -12 7 C-11.67 6.01 -11.34 5.02 -11 4 C-8.36 4.33 -5.72 4.66 -3 5 C-2.649375 4.175 -2.29875 3.35 -1.9375 2.5 C-1.298125 1.675 -0.65875 0.85 0 0 Z " fill="#618C79" transform="translate(91,72)"/>
<path d="M0 0 C0.66 0.99 1.32 1.98 2 3 C5.27275026 3 7.846632 2.70074844 11 2 C10.34 3.98 9.68 5.96 9 8 C9.66 8.66 10.32 9.32 11 10 C9.68 10.33 8.36 10.66 7 11 C7.226875 11.598125 7.45375 12.19625 7.6875 12.8125 C8 15 8 15 6.90625 16.625 C4.18002896 18.59145452 2.13077983 18.29454128 -1.1875 18.1875 C-2.27417969 18.16042969 -3.36085938 18.13335937 -4.48046875 18.10546875 C-5.72763672 18.05326172 -5.72763672 18.05326172 -7 18 C-7 16.68 -7 15.36 -7 14 C-6.2575 14.061875 -5.515 14.12375 -4.75 14.1875 C-1.50382587 13.96616995 -0.48453844 12.98763075 2 11 C2.99 11 3.98 11 5 11 C5 10.34 5 9.68 5 9 C3.35 8.67 1.7 8.34 0 8 C-0.38063221 5.6739143 -0.71269945 3.33944736 -1 1 C-0.67 0.67 -0.34 0.34 0 0 Z " fill="#597873" transform="translate(101,145)"/>
<path d="M0 0 C0.99 0 1.98 0 3 0 C3 1.32 3 2.64 3 4 C4.093125 4 5.18625 4 6.3125 4 C13 4 13 4 16 5 C16 6.32 16 7.64 16 9 C15.4225 8.773125 14.845 8.54625 14.25 8.3125 C11.87827523 7.73494807 11.87827523 7.73494807 9.75 9.4375 C9.1725 9.953125 8.595 10.46875 8 11 C9.32 11.66 10.64 12.32 12 13 C12 13.66 12 14.32 12 15 C11.01 15 10.02 15 9 15 C9 15.66 9 16.32 9 17 C8.34 17 7.68 17 7 17 C6.67 17.66 6.34 18.32 6 19 C5.67 19.33 5.34 19.66 5 20 C3.68 20 2.36 20 1 20 C1.375 17.5625 1.375 17.5625 2 15 C2.66 14.67 3.32 14.34 4 14 C4 12.35 4 10.7 4 9 C3.01 9 2.02 9 1 9 C0.875 3.25 0.875 3.25 2 1 C1.34 0.67 0.68 0.34 0 0 Z " fill="#5F7E79" transform="translate(66,144)"/>
<path d="M0 0 C1.35368596 1.31266518 2.68799596 2.64567325 4 4 C4.99 4.66 5.98 5.32 7 6 C6.34 6 5.68 6 5 6 C5 6.66 5 7.32 5 8 C2.69 8.33 0.38 8.66 -2 9 C-2.33 8.34 -2.66 7.68 -3 7 C-3.66 7.66 -4.32 8.32 -5 9 C-5 8.01 -5 7.02 -5 6 C-5.66 6 -6.32 6 -7 6 C-7.33 6.99 -7.66 7.98 -8 9 C-8 8.34 -8 7.68 -8 7 C-8.99 6.67 -9.98 6.34 -11 6 C-10.34 6 -9.68 6 -9 6 C-9 5.34 -9 4.68 -9 4 C-9.66 3.67 -10.32 3.34 -11 3 C-11 1.68 -11 0.36 -11 -1 C-3.39942113 -2.46164978 -3.39942113 -2.46164978 0 0 Z " fill="#54736E" transform="translate(154,149)"/>
<path d="M0 0 C1.65 0 3.3 0 5 0 C5.268125 1.19625 5.53625 2.3925 5.8125 3.625 C6.7391113 7.38477534 8.20047341 10.56454015 10 14 C10 14.66 10 15.32 10 16 C10.66 16 11.32 16 12 16 C12.33 16.99 12.66 17.98 13 19 C13.515625 19.515625 14.03125 20.03125 14.5625 20.5625 C15.036875 21.036875 15.51125 21.51125 16 22 C16 22.66 16 23.32 16 24 C13.525 23.01 13.525 23.01 11 22 C11 21.34 11 20.68 11 20 C9.68 19.34 8.36 18.68 7 18 C7 17.34 7 16.68 7 16 C6.34 16 5.68 16 5 16 C4.15488176 14.27656245 3.32436646 12.54595947 2.5 10.8125 C2.0359375 9.84957031 1.571875 8.88664062 1.09375 7.89453125 C0.00407079 5.01077307 -0.22277524 3.04645139 0 0 Z " fill="#6A8280" transform="translate(82,88)"/>
<path d="M0 0 C1.42944945 2.35438733 2.08661261 3.48032433 1.625 6.25 C1.41875 6.8275 1.2125 7.405 1 8 C0.01 8 -0.98 8 -2 8 C-2.66 8.66 -3.32 9.32 -4 10 C-4 9.34 -4 8.68 -4 8 C-4.99 8.495 -4.99 8.495 -6 9 C-6 9.66 -6 10.32 -6 11 C-6.66 11 -7.32 11 -8 11 C-8 12.98 -8 14.96 -8 17 C-10.31 17.33 -12.62 17.66 -15 18 C-14.67 16.68 -14.34 15.36 -14 14 C-12.68 14 -11.36 14 -10 14 C-9.34 12.02 -8.68 10.04 -8 8 C-8.99 7.67 -9.98 7.34 -11 7 C-10.4375 5.125 -10.4375 5.125 -9 3 C-5.5 1.8125 -5.5 1.8125 -2 1 C-1.34 0.67 -0.68 0.34 0 0 Z " fill="#4C6864" transform="translate(170,145)"/>
<path d="M0 0 C4 0 4 0 6.1875 2.0625 C8.67937829 6.10106136 9.44227848 9.50397295 8.60546875 14.2265625 C8.12907194 16.1664229 7.57089616 18.08581875 7 20 C4.54745557 17.01337713 3.12584735 14.19055917 1.8125 10.5625 C1.46832031 9.63566406 1.12414062 8.70882812 0.76953125 7.75390625 C0.00634973 5.02272364 -0.14832648 2.81820315 0 0 Z " fill="#8DB377" transform="translate(105,64)"/>
<path d="M0 0 C3.96 0 7.92 0 12 0 C11 4 11 4 8 6 C7.67 6.66 7.34 7.32 7 8 C5.54176788 8.0270043 4.08339325 8.04639787 2.625 8.0625 C1.81289062 8.07410156 1.00078125 8.08570312 0.1640625 8.09765625 C-2 8 -2 8 -4 7 C-3.67 5.35 -3.34 3.7 -3 2 C-2.01 2 -1.02 2 0 2 C0 1.34 0 0.68 0 0 Z " fill="#83AD58" transform="translate(156,74)"/>
<path d="M0 0 C3.58848221 -0.51264032 4.80512535 -0.13857753 7.8125 2 C10.75114822 6.03014613 10.41390604 8.11590878 10 13 C7.23620802 12.92103451 5.53412211 12.53556568 3.5546875 10.55078125 C1.35650816 7.65546504 0.07733225 5.72692318 -0.3125 2.0625 C-0.209375 1.381875 -0.10625 0.70125 0 0 Z " fill="#8CB17C" transform="translate(75,51)"/>
<path d="M0 0 C0.33 0.66 0.66 1.32 1 2 C1.66 2 2.32 2 3 2 C3 2.66 3 3.32 3 4 C4.32 4 5.64 4 7 4 C8.125 9.625 8.125 9.625 7 13 C7.87483915 15.16715557 7.87483915 15.16715557 9 17 C5.92677456 17.91058531 3.19902639 18.08886184 0 18 C0.375 16.0625 0.375 16.0625 1 14 C1.66 13.67 2.32 13.34 3 13 C2.34 11.02 1.68 9.04 1 7 C0.01 7 -0.98 7 -2 7 C-2 5.35 -2 3.7 -2 2 C-1.34 2 -0.68 2 0 2 C0 1.34 0 0.68 0 0 Z " fill="#466560" transform="translate(86,155)"/>
<path d="M0 0 C0.66 0.33 1.32 0.66 2 1 C2 1.99 2 2.98 2 4 C2.33 3.01 2.66 2.02 3 1 C3.66 1 4.32 1 5 1 C5.84098656 5.01804691 6.05404945 8.01803543 5 12 C5.99 11.67 6.98 11.34 8 11 C8 12.65 8 14.3 8 16 C5 16 5 16 2.4375 15.4375 C0.00235139 14.74957739 0.00235139 14.74957739 -2 16 C-3 15 -3 15 -4 12 C-2.02 11.34 -0.04 10.68 2 10 C1.2265625 8.9171875 1.2265625 8.9171875 0.4375 7.8125 C-1.21442982 4.5804634 -1.06351675 3.38391693 0 0 Z " fill="#4A6863" transform="translate(49,147)"/>
<path d="M0 0 C1.66611905 -0.042721 3.33382885 -0.04063832 5 0 C6 1 6 1 6.0625 3.5625 C6.041875 4.366875 6.02125 5.17125 6 6 C5.236875 6.144375 4.47375 6.28875 3.6875 6.4375 C0.91827092 6.9632594 0.91827092 6.9632594 -2 8 C-2.33 8.66 -2.66 9.32 -3 10 C-3 9.34 -3 8.68 -3 8 C-4.98 8.33 -6.96 8.66 -9 9 C-9.66 6.69 -10.32 4.38 -11 2 C-9.02 1.67 -7.04 1.34 -5 1 C-5 2.32 -5 3.64 -5 5 C-3.68 5 -2.36 5 -1 5 C-0.67 3.35 -0.34 1.7 0 0 Z " fill="#425E5A" transform="translate(178,189)"/>
<path d="M0 0 C0.66 0 1.32 0 2 0 C2 0.66 2 1.32 2 2 C3.32 2 4.64 2 6 2 C6 2.99 6 3.98 6 5 C7.32 5.66 8.64 6.32 10 7 C10 8.32 10 9.64 10 11 C5.60490434 11.43089173 3.63156793 11.46051828 0 8.8125 C-2 6 -2 6 -1.875 3.25 C-1 1 -1 1 0 0 Z " fill="#6E9F64" transform="translate(78,65)"/>
<path d="M0 0 C0.66 0 1.32 0 2 0 C2 0.99 2 1.98 2 3 C2.99 2.67 3.98 2.34 5 2 C7.5654594 4.5654594 7.54046087 6.47686668 8 10 C7.01 10.495 7.01 10.495 6 11 C5.67 11.66 5.34 12.32 5 13 C4.34 12.67 3.68 12.34 3 12 C2.67 12.99 2.34 13.98 2 15 C1.34 15 0.68 15 0 15 C0.03480469 14.37351563 0.06960937 13.74703125 0.10546875 13.1015625 C0.13253906 12.28429687 0.15960938 11.46703125 0.1875 10.625 C0.22230469 9.81289062 0.25710937 9.00078125 0.29296875 8.1640625 C0.19628906 7.44992188 0.09960938 6.73578125 0 6 C-0.99 5.34 -1.98 4.68 -3 4 C-2.67 3.34 -2.34 2.68 -2 2 C-1.34 2.33 -0.68 2.66 0 3 C0 2.01 0 1.02 0 0 Z M-4 5 C-2 6 -2 6 -2 6 Z " fill="#5D7C77" transform="translate(82,159)"/>
<path d="M0 0 C3.3 0 6.6 0 10 0 C10.33 1.32 10.66 2.64 11 4 C10 5 10 5 7.4375 5.0625 C6.2309375 5.0315625 6.2309375 5.0315625 5 5 C5 5.66 5 6.32 5 7 C4.34 7 3.68 7 3 7 C3 6.34 3 5.68 3 5 C2.34 5 1.68 5 1 5 C2.32 6.65 3.64 8.3 5 10 C4.67 10.66 4.34 11.32 4 12 C3.34 12 2.68 12 2 12 C1.67 12.66 1.34 13.32 1 14 C1.04125 13.2575 1.0825 12.515 1.125 11.75 C1.19811231 9.02811715 1.19811231 9.02811715 -0.0625 7 C-1.30742555 4.34415882 -0.76786849 2.76432655 0 0 Z " fill="#4A6763" transform="translate(174,148)"/>
<path d="M0 0 C0.66 0.66 1.32 1.32 2 2 C1.625 5.625 1.625 5.625 1 9 C0.401875 8.835 -0.19625 8.67 -0.8125 8.5 C-3.11344336 7.8885876 -3.11344336 7.8885876 -6 8 C-6.99 7.67 -7.98 7.34 -9 7 C-9.99 7.495 -9.99 7.495 -11 8 C-11.66 5.69 -12.32 3.38 -13 1 C-10.69 1 -8.38 1 -6 1 C-6 1.66 -6 2.32 -6 3 C-4.68 2.34 -3.36 1.68 -2 1 C-1.67 1.33 -1.34 1.66 -1 2 C-0.67 1.34 -0.34 0.68 0 0 Z " fill="#63827D" transform="translate(103,164)"/>
<path d="M0 0 C1.65 0 3.3 0 5 0 C6.1898306 2.3796612 6.13349966 3.91485735 6.125 6.5625 C6.12757812 7.36816406 6.13015625 8.17382812 6.1328125 9.00390625 C6 11 6 11 5 12 C3.35 12 1.7 12 0 12 C0 8.04 0 4.08 0 0 Z " fill="#3D8982" transform="translate(112,52)"/>
<path d="M0 0 C0.99 0.33 1.98 0.66 3 1 C3.43684211 6.24210526 3.43684211 6.24210526 3 9 C0.625 11.5 0.625 11.5 -2 13 C-2.66 13 -3.32 13 -4 13 C-4.49230769 5.73846154 -4.49230769 5.73846154 -2 2 C-1.34 1.34 -0.68 0.68 0 0 Z " fill="#8CAF80" transform="translate(127,58)"/>
<path d="M0 0 C1.32 0 2.64 0 4 0 C4.33 1.32 4.66 2.64 5 4 C5.66 4 6.32 4 7 4 C7 6.64 7 9.28 7 12 C4.625 11.8125 4.625 11.8125 2 11 C-0.16789459 7.38684234 -0.19258541 4.14058636 0 0 Z " fill="#81A862" transform="translate(90,60)"/>
<path d="M0 0 C1.60407328 -0.02708567 3.2082785 -0.04643483 4.8125 -0.0625 C5.70582031 -0.07410156 6.59914063 -0.08570312 7.51953125 -0.09765625 C10 0 10 0 13 1 C13.66 2.32 14.32 3.64 15 5 C10.71 5 6.42 5 2 5 C2 4.34 2 3.68 2 3 C1.01 3 0.02 3 -1 3 C-0.67 2.01 -0.34 1.02 0 0 Z " fill="#80A866" transform="translate(81,80)"/>
<path d="M0 0 C0.66 0 1.32 0 2 0 C3.51891389 4.86052444 2.57191628 8.28425116 1 13 C0.01 13.33 -0.98 13.66 -2 14 C-2.73323796 16.01508358 -2.73323796 16.01508358 -3 18 C-3.08150744 15.93816367 -3.1394194 13.87538651 -3.1875 11.8125 C-3.22230469 10.66394531 -3.25710937 9.51539062 -3.29296875 8.33203125 C-2.97436317 4.70842376 -2.21947332 2.85360856 0 0 Z " fill="#81A969" transform="translate(119,67)"/>
<path d="M0 0 C0.33 0.66 0.66 1.32 1 2 C1.61875 2.12375 2.2375 2.2475 2.875 2.375 C5 3 5 3 6.8125 4.75 C8.31690887 7.6004589 7.92250763 8.98088413 7 12 C6.01 11.67 5.02 11.34 4 11 C4 10.01 4 9.02 4 8 C3.01 7.67 2.02 7.34 1 7 C0.360625 6.649375 -0.27875 6.29875 -0.9375 5.9375 C-3.2293158 4.72413137 -3.2293158 4.72413137 -7 5 C-7 3.68 -7 2.36 -7 1 C-6.401875 1.20625 -5.80375 1.4125 -5.1875 1.625 C-2.71549154 2.30671915 -2.71549154 2.30671915 0 0 Z " fill="#64837E" transform="translate(130,147)"/>
<path d="M0 0 C1.65 0 3.3 0 5 0 C4.67 0.99 4.34 1.98 4 3 C3.34 2.67 2.68 2.34 2 2 C2.185625 2.61875 2.37125 3.2375 2.5625 3.875 C3 6 3 6 2 8 C1.01 8 0.02 8 -1 8 C-1 8.99 -1 9.98 -1 11 C-2.32 11 -3.64 11 -5 11 C-4.67 8.36 -4.34 5.72 -4 3 C-2.68 2.67 -1.36 2.34 0 2 C0 1.34 0 0.68 0 0 Z " fill="#448777" transform="translate(128,72)"/>
<path d="M0 0 C1.66611905 -0.042721 3.33382885 -0.04063832 5 0 C6 1 6 1 6.0625 3.5625 C6.041875 4.366875 6.02125 5.17125 6 6 C5.34 6 4.68 6 4 6 C4 6.66 4 7.32 4 8 C1.69 8.33 -0.62 8.66 -3 9 C-2.01 6.03 -1.02 3.06 0 0 Z " fill="#6F9572" transform="translate(152,58)"/>
<path d="M0 0 C0.66 0.99 1.32 1.98 2 3 C5.27275026 3 7.846632 2.70074844 11 2 C10.34 3.98 9.68 5.96 9 8 C3.375 9.125 3.375 9.125 0 8 C-0.38063221 5.6739143 -0.71269945 3.33944736 -1 1 C-0.67 0.67 -0.34 0.34 0 0 Z " fill="#45645F" transform="translate(101,145)"/>
<path d="M0 0 C1.875 1.375 1.875 1.375 3 3 C3 3.66 3 4.32 3 5 C0.19084526 6.40457737 -1.88810534 6.24895157 -5 6 C-7.375 4.625 -7.375 4.625 -9 3 C-9 2.34 -9 1.68 -9 1 C-5.72429875 -0.09190042 -3.43202271 -0.28600189 0 0 Z " fill="#8BB175" transform="translate(75,74)"/>
<path d="M0 0 C0.99 0 1.98 0 3 0 C3 0.99 3 1.98 3 3 C3.99 3 4.98 3 6 3 C5.25 5.9375 5.25 5.9375 4 9 C2 9.9375 2 9.9375 0 10 C-0.66 9.67 -1.32 9.34 -2 9 C-1.125 1.125 -1.125 1.125 0 0 Z " fill="#6D9770" transform="translate(144,52)"/>
<path d="M0 0 C0.99 0.33 1.98 0.66 3 1 C3 3.64 3 6.28 3 9 C1.02 9.66 -0.96 10.32 -3 11 C-3.36923077 3.49230769 -3.36923077 3.49230769 -1.5 1 C-1.005 0.67 -0.51 0.34 0 0 Z " fill="#709F62" transform="translate(125,43)"/>
<path d="M0 0 C0.66 0 1.32 0 2 0 C2.19658808 1.41543415 2.38187546 2.83244031 2.5625 4.25 C2.66691406 5.03890625 2.77132812 5.8278125 2.87890625 6.640625 C3.00027349 9.00532874 2.69633257 10.7511037 2 13 C0.68 13 -0.64 13 -2 13 C-2.05416188 11.39620659 -2.09286638 9.79188594 -2.125 8.1875 C-2.14820312 7.29417969 -2.17140625 6.40085937 -2.1953125 5.48046875 C-2 3 -2 3 0 0 Z " fill="#6CA064" transform="translate(102,67)"/>
<path d="M0 0 C1.67542976 0.28604898 3.34385343 0.61781233 5 1 C5.35474551 4.07446111 5.53698855 6.94127109 5 10 C2 12.5625 2 12.5625 -1 14 C-1.33 12.02 -1.66 10.04 -2 8 C-1.175 7.38125 -0.35 6.7625 0.5 6.125 C1.7375 5.073125 1.7375 5.073125 3 4 C3 3.34 3 2.68 3 2 C1.68 1.67 0.36 1.34 -1 1 C-0.67 0.67 -0.34 0.34 0 0 Z " fill="#6B8C7A" transform="translate(137,62)"/>
<path d="M0 0 C1.37562854 1.28965176 2.70766393 2.62689293 4 4 C4 4.66 4 5.32 4 6 C3.030625 6.144375 2.06125 6.28875 1.0625 6.4375 C-1.86486773 6.67562341 -1.86486773 6.67562341 -3 8 C-3.68268138 9.32520503 -4.3507041 10.65812182 -5 12 C-7.09350689 8.5980513 -7.17942163 5.94727588 -7 2 C-6.34 2.66 -5.68 3.32 -5 4 C-3.35 2.68 -1.7 1.36 0 0 Z " fill="#42615C" transform="translate(188,155)"/>
<path d="M0 0 C1.42944945 2.35438733 2.08661261 3.48032433 1.625 6.25 C1.41875 6.8275 1.2125 7.405 1 8 C0.01 8 -0.98 8 -2 8 C-2.66 8.66 -3.32 9.32 -4 10 C-4 9.34 -4 8.68 -4 8 C-4.66 7.67 -5.32 7.34 -6 7 C-6.625 4.4375 -6.625 4.4375 -7 2 C-4.69 1.34 -2.38 0.68 0 0 Z " fill="#67837F" transform="translate(170,145)"/>
<path d="M0 0 C4.28894577 0.35741215 5.79180813 1.26466595 8.75 4.3125 C8.75 4.9725 8.75 5.6325 8.75 6.3125 C7.1 6.3125 5.45 6.3125 3.75 6.3125 C3.42 5.3225 3.09 4.3325 2.75 3.3125 C2.42 4.3025 2.09 5.2925 1.75 6.3125 C1.09 6.3125 0.43 6.3125 -0.25 6.3125 C-0.91 5.6525 -1.57 4.9925 -2.25 4.3125 C-2.91 4.9725 -3.57 5.6325 -4.25 6.3125 C-4.292721 4.64638095 -4.29063832 2.97867115 -4.25 1.3125 C-3.25 0.3125 -3.25 0.3125 0 0 Z " fill="#4F6E69" transform="translate(127.25,188.6875)"/>
<path d="M0 0 C0.66 0 1.32 0 2 0 C2 1.65 2 3.3 2 5 C2.66 5.33 3.32 5.66 4 6 C2.68 7.32 1.36 8.64 0 10 C-1.32 9.34 -2.64 8.68 -4 8 C-3.01 8 -2.02 8 -1 8 C-1.020625 6.865625 -1.04125 5.73125 -1.0625 4.5625 C-1 1 -1 1 0 0 Z M3 0 C4.32 0.33 5.64 0.66 7 1 C6.67 2.32 6.34 3.64 6 5 C5.34 5 4.68 5 4 5 C3.67 3.35 3.34 1.7 3 0 Z " fill="#6D8C87" transform="translate(105,165)"/>
<path d="M0 0 C2.4375 0.6875 2.4375 0.6875 5 2 C5.8125 4.625 5.8125 4.625 6 7 C4.68 7.33 3.36 7.66 2 8 C1.67 6.68 1.34 5.36 1 4 C0.67 5.32 0.34 6.64 0 8 C-0.99 7.67 -1.98 7.34 -3 7 C-1.125 1.125 -1.125 1.125 0 0 Z " fill="#4C6763" transform="translate(168,155)"/>
<path d="M0 0 C0.99 0 1.98 0 3 0 C2.34 3.3 1.68 6.6 1 10 C0.67 9.01 0.34 8.02 0 7 C-2.64 7 -5.28 7 -8 7 C-8.33 7.66 -8.66 8.32 -9 9 C-9.66 9 -10.32 9 -11 9 C-11 7.35 -11 5.7 -11 4 C-7.37 4 -3.74 4 0 4 C0 2.68 0 1.36 0 0 Z " fill="#6A906A" transform="translate(163,78)"/>
<path d="M0 0 C3.96 0 7.92 0 12 0 C11.67 1.32 11.34 2.64 11 4 C9.68 4 8.36 4 7 4 C7 3.34 7 2.68 7 2 C4.36 2.66 1.72 3.32 -1 4 C-1.33 5.32 -1.66 6.64 -2 8 C-2.66 7.67 -3.32 7.34 -4 7 C-3.67 5.35 -3.34 3.7 -3 2 C-2.01 2 -1.02 2 0 2 C0 1.34 0 0.68 0 0 Z " fill="#7BA375" transform="translate(156,74)"/>
<path d="M0 0 C4.75 0.75 4.75 0.75 7 3 C7.125 6.125 7.125 6.125 7 9 C5.68 8.67 4.36 8.34 3 8 C3 7.34 3 6.68 3 6 C2.01 5.67 1.02 5.34 0 5 C0 3.35 0 1.7 0 0 Z " fill="#7EAB69" transform="translate(101,50)"/>
<path d="M0 0 C0 1.65 0 3.3 0 5 C-2.31 5.66 -4.62 6.32 -7 7 C-7 4.69 -7 2.38 -7 0 C-4.3333581 -1.33332095 -2.83319697 -0.67102033 0 0 Z " fill="#4C887D" transform="translate(140,51)"/>
<path d="M0 0 C1.65 0.33 3.3 0.66 5 1 C5 2.98 5 4.96 5 7 C2 7 2 7 -0.5625 6.4375 C-2.99764861 5.74957739 -2.99764861 5.74957739 -5 7 C-6 6 -6 6 -7 3 C-5.5459375 2.814375 -5.5459375 2.814375 -4.0625 2.625 C-2.5465625 2.315625 -2.5465625 2.315625 -1 2 C-0.67 1.34 -0.34 0.68 0 0 Z " fill="#3F5A57" transform="translate(129,156)"/>
<path d="M0 0 C1.98 0 3.96 0 6 0 C6.125 5.75 6.125 5.75 5 8 C1.125 7.125 1.125 7.125 0 6 C-0.04080783 4.00041636 -0.04254356 1.99954746 0 0 Z " fill="#4F8A7D" transform="translate(88,48)"/>
<path d="M0 0 C3.34252724 -0.07427838 5.8035914 -0.06546953 9 1 C9 2.65 9 4.3 9 6 C8.01 6.33 7.02 6.66 6 7 C6 6.34 6 5.68 6 5 C4.35 5 2.7 5 1 5 C0.67 3.35 0.34 1.7 0 0 Z " fill="#3B5753" transform="translate(146,190)"/>
<path d="M0 0 C0.99 0.33 1.98 0.66 3 1 C2.01 1.495 2.01 1.495 1 2 C0.67 3.32 0.34 4.64 0 6 C3.63 6 7.26 6 11 6 C10.34 7.32 9.68 8.64 9 10 C8.01 9.67 7.02 9.34 6 9 C4.68 9 3.36 9 2 9 C1.34 9 0.68 9 0 9 C-1.36623674 6.26752652 -1.128426 4.01801098 -1 1 C-0.67 0.67 -0.34 0.34 0 0 Z " fill="#6C8B86" transform="translate(94,157)"/>
<path d="M0 0 C2.64 0 5.28 0 8 0 C8 1.98 8 3.96 8 6 C7.01 6.495 7.01 6.495 6 7 C3 5.1875 3 5.1875 0 3 C0 2.01 0 1.02 0 0 Z " fill="#578A7B" transform="translate(68,80)"/>
<path d="M0 0 C2.3125 0.1875 2.3125 0.1875 5 1 C7.20970874 3.89548041 8 5.33157745 8 9 C7.01 9 6.02 9 5 9 C4.67 7.68 4.34 6.36 4 5 C2.35 5 0.7 5 -1 5 C-0.67 3.35 -0.34 1.7 0 0 Z " fill="#48877E" transform="translate(92,74)"/>
<path d="M0 0 C0.33 0 0.66 0 1 0 C1.33 5.28 1.66 10.56 2 16 C1.67 16 1.34 16 1 16 C0.6596875 14.329375 0.6596875 14.329375 0.3125 12.625 C-0.60623658 8.83961627 -0.60623658 8.83961627 -3.625 7.5625 C-4.40875 7.376875 -5.1925 7.19125 -6 7 C-6 6.34 -6 5.68 -6 5 C-5.01 4.67 -4.02 4.34 -3 4 C-1.96854629 2.69084721 -0.96457834 1.35917857 0 0 Z " fill="#6B8F70" transform="translate(107,43)"/>
<path d="M0 0 C-1.36983503 3.16115776 -1.9890638 3.9927092 -5 6 C-7.6875 6.125 -7.6875 6.125 -10 6 C-9.67 4.68 -9.34 3.36 -9 2 C-8.01 2 -7.02 2 -6 2 C-6 1.34 -6 0.68 -6 0 C-3 -1 -3 -1 0 0 Z " fill="#7EA870" transform="translate(141,64)"/>
<path d="M0 0 C0.99 0 1.98 0 3 0 C3 1.32 3 2.64 3 4 C3.66 4 4.32 4 5 4 C5 3.01 5 2.02 5 1 C5.99 1.33 6.98 1.66 8 2 C8.33 3.65 8.66 5.3 9 7 C8.34 7 7.68 7 7 7 C6.67 7.66 6.34 8.32 6 9 C5.566875 8.525625 5.13375 8.05125 4.6875 7.5625 C2.97690387 5.76313043 2.97690387 5.76313043 0 5 C0 3.35 0 1.7 0 0 Z " fill="#3E5955" transform="translate(194,190)"/>
<path d="M0 0 C4.75 -0.125 4.75 -0.125 7 1 C6.67 3.64 6.34 6.28 6 9 C4 8 2 7 0 6 C0 4.02 0 2.04 0 0 Z " fill="#3E5B56" transform="translate(101,190)"/>
<path d="M0 0 C1.4540625 0.495 1.4540625 0.495 2.9375 1 C5.62149574 2.05173363 5.62149574 2.05173363 7 2 C7 3.65 7 5.3 7 7 C6.4225 6.814375 5.845 6.62875 5.25 6.4375 C2.79307475 5.95976454 1.35602466 6.24270636 -1 7 C-1.04254356 5.00045254 -1.04080783 2.99958364 -1 1 C-0.67 0.67 -0.34 0.34 0 0 Z " fill="#415856" transform="translate(133,166)"/>
<path d="M0 0 C0.66 0 1.32 0 2 0 C2.86762314 2.24561282 3.7192103 4.49526255 4.5625 6.75 C4.80935547 7.38421875 5.05621094 8.0184375 5.31054688 8.671875 C6.58197079 12.11009179 7.46686355 14.52168882 6 18 C5.32471777 16.42032193 4.66010306 14.83608097 4 13.25 C3.62875 12.36828125 3.2575 11.4865625 2.875 10.578125 C2 8 2 8 2 4 C1.01 4.33 0.02 4.66 -1 5 C-0.67 3.35 -0.34 1.7 0 0 Z " fill="#689165" transform="translate(102,63)"/>
<path d="M0 0 C0.99 0.33 1.98 0.66 3 1 C2.52723148 5.25491665 0.07452523 7.22542845 -3 10 C-3.99 10.495 -3.99 10.495 -5 11 C-5 10.01 -5 9.02 -5 8 C-4.34 8 -3.68 8 -3 8 C-3 6.02 -3 4.04 -3 2 C-2.34 2 -1.68 2 -1 2 C-0.67 1.34 -0.34 0.68 0 0 Z " fill="#59887F" transform="translate(133,72)"/>
<path d="M0 0 C3.71599191 -0.20086443 4.77208445 -0.1519437 8 2 C8 3.32 8 4.64 8 6 C5.6875 6.25 5.6875 6.25 3 6 C1.02389614 3.95575462 0 2.8823175 0 0 Z " fill="#7DA46B" transform="translate(64,64)"/>
<path d="M0 0 C0.99 0 1.98 0 3 0 C3 1.32 3 2.64 3 4 C3.66 3.01 4.32 2.02 5 1 C5.66 1 6.32 1 7 1 C7.33 2.32 7.66 3.64 8 5 C7.34 5 6.68 5 6 5 C6 5.66 6 6.32 6 7 C3.03 6.505 3.03 6.505 0 6 C0 4.02 0 2.04 0 0 Z " fill="#354F4B" transform="translate(159,190)"/>
<path d="M0 0 C2.31 0.33 4.62 0.66 7 1 C6.67 2.65 6.34 4.3 6 6 C5.34 5.67 4.68 5.34 4 5 C3.01 5.99 2.02 6.98 1 8 C0.34 7.34 -0.32 6.68 -1 6 C-0.625 2.875 -0.625 2.875 0 0 Z " fill="#334F4B" transform="translate(110,190)"/>
<path d="M0 0 C0.5775 0.165 1.155 0.33 1.75 0.5 C4.26664369 1.14462031 4.26664369 1.14462031 8 1 C8.1875 3.375 8.1875 3.375 8 6 C7.01 6.66 6.02 7.32 5 8 C4.67 7.01 4.34 6.02 4 5 C1.98491642 4.26676204 1.98491642 4.26676204 0 4 C0 2.68 0 1.36 0 0 Z " fill="#3E5B56" transform="translate(113,158)"/>
<path d="M0 0 C1.32 0 2.64 0 4 0 C4.33 1.32 4.66 2.64 5 4 C5.99 4 6.98 4 8 4 C8 3.01 8 2.02 8 1 C8.66 1 9.32 1 10 1 C10 2.65 10 4.3 10 6 C8.02 6 6.04 6 4 6 C3.731875 5.360625 3.46375 4.72125 3.1875 4.0625 C2.11332248 1.66868314 2.11332248 1.66868314 -1 1 C-0.67 0.67 -0.34 0.34 0 0 Z " fill="#558E76" transform="translate(92,79)"/>
<path d="M0 0 C2.125 0.9375 2.125 0.9375 4 2 C4 3.98 4 5.96 4 8 C1.5625 7.3125 1.5625 7.3125 -1 6 C-1.8125 3.375 -1.8125 3.375 -2 1 C-1.34 0.67 -0.68 0.34 0 0 Z " fill="#8DB969" transform="translate(79,52)"/>
<path d="M0 0 C0.66 0 1.32 0 2 0 C2.125 6.75 2.125 6.75 1 9 C-1.97 8.505 -1.97 8.505 -5 8 C-5 7.01 -5 6.02 -5 5 C-3.68 5 -2.36 5 -1 5 C-0.67 3.35 -0.34 1.7 0 0 Z M-4 9 C-2 10 -2 10 -2 10 Z " fill="#577772" transform="translate(195,156)"/>
<path d="M0 0 C0.99 0 1.98 0 3 0 C3.33 0.99 3.66 1.98 4 3 C4.66 3 5.32 3 6 3 C6 5 6 5 4.875 6.6875 C3 8 3 8 -0.1875 7.6875 C-1.115625 7.460625 -2.04375 7.23375 -3 7 C-3 6.01 -3 5.02 -3 4 C-1.68 4 -0.36 4 1 4 C0.67 2.68 0.34 1.36 0 0 Z " fill="#4A6964" transform="translate(58,144)"/>
<path d="M0 0 C1.85776765 3.13498292 2.20140476 5.37471432 2 9 C1.01 9.33 0.02 9.66 -1 10 C-1.66 9.67 -2.32 9.34 -3 9 C-3 7.35 -3 5.7 -3 4 C-2.01 3.67 -1.02 3.34 0 3 C0 2.01 0 1.02 0 0 Z " fill="#528679" transform="translate(99,52)"/>
<path d="M0 0 C0.33 0.99 0.66 1.98 1 3 C1.99 3 2.98 3 4 3 C4 3.66 4 4.32 4 5 C3.34 5 2.68 5 2 5 C1.67 5.66 1.34 6.32 1 7 C0.67 7.33 0.34 7.66 0 8 C-1.32 8 -2.64 8 -4 8 C-3.50168276 4.31245243 -2.89932357 2.39509338 0 0 Z " fill="#365550" transform="translate(71,156)"/>
<path d="M0 0 C1.98 0.495 1.98 0.495 4 1 C4 1.66 4 2.32 4 3 C4.66 3 5.32 3 6 3 C5.67 4.65 5.34 6.3 5 8 C2.03 7.505 2.03 7.505 -1 7 C-0.67 4.69 -0.34 2.38 0 0 Z " fill="#42605B" transform="translate(84,145)"/>
<path d="M0 0 C1.65 0 3.3 0 5 0 C6.20272819 2.40545638 6.10071472 3.94996953 6.0625 6.625 C6.05347656 7.44226562 6.04445313 8.25953125 6.03515625 9.1015625 C6.02355469 9.72804688 6.01195313 10.35453125 6 11 C5.01 11 4.02 11 3 11 C3 8 3 5 3 2 C2.01 2 1.02 2 0 2 C0 1.34 0 0.68 0 0 Z " fill="#45887A" transform="translate(112,52)"/>
<path d="M0 0 C2.97 0.33 5.94 0.66 9 1 C8.67 1.99 8.34 2.98 8 4 C4.71303767 4.79953138 3.28976808 5.09658936 0 4 C0 2.68 0 1.36 0 0 Z " fill="#375550" transform="translate(35,158)"/>
<path d="M0 0 C2.64 0 5.28 0 8 0 C8 0.66 8 1.32 8 2 C6.68 2.33 5.36 2.66 4 3 C4 3.66 4 4.32 4 5 C2.68 5 1.36 5 0 5 C0 3.35 0 1.7 0 0 Z " fill="#35534E" transform="translate(144,159)"/>
<path d="M0 0 C1.65 0 3.3 0 5 0 C5.5625 1.9375 5.5625 1.9375 6 4 C5.67 4.33 5.34 4.66 5 5 C2.66055264 4.71269945 0.3260857 4.38063221 -2 4 C-1.34 2.68 -0.68 1.36 0 0 Z " fill="#42615C" transform="translate(179,148)"/>
<path d="M0 0 C0 1.98 0 3.96 0 6 C-2.64 5.67 -5.28 5.34 -8 5 C-8 3.68 -8 2.36 -8 1 C-7.401875 1.20625 -6.80375 1.4125 -6.1875 1.625 C-3.18627465 2.13949577 -2.72415615 0 0 0 Z " fill="#34514C" transform="translate(131,147)"/>
<path d="M0 0 C2.475 0.99 2.475 0.99 5 2 C5 2.99 5 3.98 5 5 C4.071875 5.144375 3.14375 5.28875 2.1875 5.4375 C-1.00725111 5.92100111 -1.00725111 5.92100111 -4 7 C-3.34 5.35 -2.68 3.7 -2 2 C-1.34 2 -0.68 2 0 2 C0 1.34 0 0.68 0 0 Z " fill="#4B6A65" transform="translate(117,147)"/>
<path d="M0 0 C0.66 0 1.32 0 2 0 C2 0.66 2 1.32 2 2 C3.65 2 5.3 2 7 2 C7 2.66 7 3.32 7 4 C3.37 4 -0.26 4 -4 4 C-4 4.66 -4 5.32 -4 6 C-4.99 6 -5.98 6 -7 6 C-6.67 5.01 -6.34 4.02 -6 3 C-3.5 1.875 -3.5 1.875 -1 1 C-0.67 0.67 -0.34 0.34 0 0 Z " fill="#628C74" transform="translate(160,70)"/>
<path d="M0 0 C0.33 0.99 0.66 1.98 1 3 C2.65 2.67 4.3 2.34 6 2 C6 3.32 6 4.64 6 6 C5.401875 5.814375 4.80375 5.62875 4.1875 5.4375 C1.83591238 4.77906313 1.83591238 4.77906313 -1 6 C-3.6875 5.0625 -3.6875 5.0625 -6 4 C-5.34 3.01 -4.68 2.02 -4 1 C-4 1.66 -4 2.32 -4 3 C-2.68 3 -1.36 3 0 3 C0 2.01 0 1.02 0 0 Z " fill="#6D8C87" transform="translate(90,170)"/>
<path d="M0 0 C0.33 0 0.66 0 1 0 C1 1.98 1 3.96 1 6 C0.4225 5.814375 -0.155 5.62875 -0.75 5.4375 C-3.20692525 4.95976454 -4.64397534 5.24270636 -7 6 C-7 4.68 -7 3.36 -7 2 C-4.69 2 -2.38 2 0 2 C0 1.34 0 0.68 0 0 Z " fill="#334E4A" transform="translate(65,157)"/>
<path d="M0 0 C0.99 0.33 1.98 0.66 3 1 C3 2.98 3 4.96 3 7 C1.68 7.33 0.36 7.66 -1 8 C-1.04241723 5.66705225 -1.04092937 3.33297433 -1 1 C-0.67 0.67 -0.34 0.34 0 0 Z " fill="#89B27C" transform="translate(109,42)"/>
<path d="M0 0 C0.33 0.66 0.66 1.32 1 2 C2.32 2 3.64 2 5 2 C5.33 3.32 5.66 4.64 6 6 C4.824375 5.9690625 4.824375 5.9690625 3.625 5.9375 C1.01885039 5.81315937 1.01885039 5.81315937 -1 7 C-1.66 6.34 -2.32 5.68 -3 5 C-2.01 3.35 -1.02 1.7 0 0 Z " fill="#61827C" transform="translate(146,193)"/>
<path d="M0 0 C2.375 0.1875 2.375 0.1875 5 1 C6.3125 3.5625 6.3125 3.5625 7 6 C6.01 5.67 5.02 5.34 4 5 C3.01 5 2.02 5 1 5 C0.67 5 0.34 5 0 5 C0 3.35 0 1.7 0 0 Z M7 3 C7.66 3 8.32 3 9 3 C8.67 3.66 8.34 4.32 8 5 C7.67 4.34 7.34 3.68 7 3 Z " fill="#4A6763" transform="translate(141,169)"/>
<path d="M0 0 C3.96 0 7.92 0 12 0 C5.6 3.2 5.6 3.2 3 4 C2.01 3.34 1.02 2.68 0 2 C0 1.34 0 0.68 0 0 Z " fill="#597157" transform="translate(84,85)"/>
<path d="M0 0 C1.32 0 2.64 0 4 0 C4.33 0.99 4.66 1.98 5 3 C5.66 3.33 6.32 3.66 7 4 C7 4.66 7 5.32 7 6 C5.35 6.33 3.7 6.66 2 7 C1.34 4.69 0.68 2.38 0 0 Z " fill="#4E6B67" transform="translate(167,191)"/>
<path d="M0 0 C0.99 0.33 1.98 0.66 3 1 C4.32 1 5.64 1 7 1 C7 2.32 7 3.64 7 5 C4.36 4.67 1.72 4.34 -1 4 C-0.67 2.68 -0.34 1.36 0 0 Z " fill="#34524D" transform="translate(75,148)"/>
<path d="M0 0 C5.75 -0.125 5.75 -0.125 8 1 C8 1.99 8 2.98 8 4 C6.02 4 4.04 4 2 4 C1.34 2.68 0.68 1.36 0 0 Z " fill="#88AB87" transform="translate(155,84)"/>
<path d="M0 0 C2.64 0 5.28 0 8 0 C7.01 0.495 7.01 0.495 6 1 C6.66 1.33 7.32 1.66 8 2 C8 2.66 8 3.32 8 4 C5.36 4 2.72 4 0 4 C0 2.68 0 1.36 0 0 Z " fill="#385752" transform="translate(94,159)"/>
<path d="M0 0 C0.66 0 1.32 0 2 0 C2 1.65 2 3.3 2 5 C-0.31 5.33 -2.62 5.66 -5 6 C-4.67 4.68 -4.34 3.36 -4 2 C-2.68 2 -1.36 2 0 2 C0 1.34 0 0.68 0 0 Z " fill="#3A5752" transform="translate(160,157)"/>
<path d="M0 0 C0.66 0 1.32 0 2 0 C2 0.99 2 1.98 2 3 C2.66 3 3.32 3 4 3 C4.33 3.99 4.66 4.98 5 6 C1 6 1 6 -2 5 C-1.34 3.35 -0.68 1.7 0 0 Z " fill="#69A15D" transform="translate(78,65)"/>
<path d="M0 0 C0.66 0 1.32 0 2 0 C2.33 0.99 2.66 1.98 3 3 C2.34 3.66 1.68 4.32 1 5 C0.35232207 7.57061311 0.35232207 7.57061311 0 10 C-0.33 8.68 -0.66 7.36 -1 6 C-1.99 6 -2.98 6 -4 6 C-4 5.34 -4 4.68 -4 4 C-3.01 4 -2.02 4 -1 4 C-0.67 2.68 -0.34 1.36 0 0 Z " fill="#6D8C87" transform="translate(172,184)"/>
<path d="M0 0 C0.33 0 0.66 0 1 0 C1 1.98 1 3.96 1 6 C-1.64 5.67 -4.28 5.34 -7 5 C-7 4.01 -7 3.02 -7 2 C-4.69 2 -2.38 2 0 2 C0 1.34 0 0.68 0 0 Z " fill="#2D4744" transform="translate(142,157)"/>
<path d="M0 0 C3 3.625 3 3.625 3 7 C1.35 7 -0.3 7 -2 7 C-2 5.35 -2 3.7 -2 2 C-1.34 2 -0.68 2 0 2 C0 1.34 0 0.68 0 0 Z " fill="#68996F" transform="translate(104,78)"/>
<path d="M0 0 C1.03159626 3.09478879 0.97482862 4.52631393 0.5625 7.6875 C0.46066406 8.49574219 0.35882813 9.30398437 0.25390625 10.13671875 C0.17011719 10.75160156 0.08632812 11.36648437 0 12 C-0.99 11.67 -1.98 11.34 -3 11 C-2.25 3.375 -2.25 3.375 0 0 Z " fill="#6F966C" transform="translate(116,69)"/>
<path d="M0 0 C0.33 0 0.66 0 1 0 C1 2.64 1 5.28 1 8 C-0.65 7.67 -2.3 7.34 -4 7 C-4.33 5.35 -4.66 3.7 -5 2 C-4.34 2 -3.68 2 -3 2 C-3 2.99 -3 3.98 -3 5 C-2.01 5 -1.02 5 0 5 C0 3.35 0 1.7 0 0 Z " fill="#7DA671" transform="translate(96,64)"/>
<path d="M0 0 C0.66 0 1.32 0 2 0 C2.33 0.66 2.66 1.32 3 2 C3.66 1.34 4.32 0.68 5 0 C5.66 0 6.32 0 7 0 C6.75 1.875 6.75 1.875 6 4 C3.9375 5.25 3.9375 5.25 2 6 C1.34 5.34 0.68 4.68 0 4 C0 2.66666667 0 1.33333333 0 0 Z " fill="#263E3B" transform="translate(186,191)"/>
<path d="M0 0 C0 1.65 0 3.3 0 5 C-0.598125 4.835 -1.19625 4.67 -1.8125 4.5 C-4.11344336 3.8885876 -4.11344336 3.8885876 -7 4 C-7.33 3.01 -7.66 2.02 -8 1 C-1.125 0 -1.125 0 0 0 Z " fill="#2D4B46" transform="translate(104,168)"/>
<path d="M0 0 C1.9375 0.625 1.9375 0.625 4 2 C4.75 5.125 4.75 5.125 5 8 C4.01 8.495 4.01 8.495 3 9 C3 8.34 3 7.68 3 7 C1.68 6.67 0.36 6.34 -1 6 C-0.34 5.67 0.32 5.34 1 5 C0.67 3.35 0.34 1.7 0 0 Z " fill="#4F6F6A" transform="translate(198,159)"/>
<path d="M0 0 C0.66 0.66 1.32 1.32 2 2 C2.66 1.67 3.32 1.34 4 1 C4 2.32 4 3.64 4 5 C2.68 5.33 1.36 5.66 0 6 C0 5.34 0 4.68 0 4 C-1.32 3.67 -2.64 3.34 -4 3 C-4 2.34 -4 1.68 -4 1 C-2.125 0.375 -2.125 0.375 0 0 Z " fill="#6D8C87" transform="translate(131,152)"/>
<path d="M0 0 C1.32 1.32 2.64 2.64 4 4 C3.34 5.32 2.68 6.64 2 8 C0.68 7.67 -0.64 7.34 -2 7 C-1.34 4.69 -0.68 2.38 0 0 Z " fill="#6A8984" transform="translate(56,149)"/>
<path d="M0 0 C0.99 0.33 1.98 0.66 3 1 C3 2.32 3 3.64 3 5 C0.69 5 -1.62 5 -4 5 C-4 4.01 -4 3.02 -4 2 C-3.01 2 -2.02 2 -1 2 C-0.67 1.34 -0.34 0.68 0 0 Z " fill="#6D8871" transform="translate(113,80)"/>
<path d="M0 0 C-0.33 1.65 -0.66 3.3 -1 5 C-2.65 5 -4.3 5 -6 5 C-5.625 3.0625 -5.625 3.0625 -5 1 C-3 0 -3 0 0 0 Z " fill="#7EA96D" transform="translate(157,60)"/>
<path d="M0 0 C1.98 0.66 3.96 1.32 6 2 C5.67 3.32 5.34 4.64 5 6 C4.34 6 3.68 6 3 6 C2.34 5.34 1.68 4.68 1 4 C0.34 4.66 -0.32 5.32 -1 6 C-1.042721 4.33388095 -1.04063832 2.66617115 -1 1 C-0.67 0.67 -0.34 0.34 0 0 Z " fill="#2B4440" transform="translate(124,189)"/>
<path d="M0 0 C2.64 0 5.28 0 8 0 C8.33 1.32 8.66 2.64 9 4 C8.21625 3.814375 7.4325 3.62875 6.625 3.4375 C4.02910225 2.74037734 4.02910225 2.74037734 2 4 C1 3 1 3 0 0 Z " fill="#2A4642" transform="translate(45,159)"/>
<path d="M0 0 C1.2065625 0.0309375 1.2065625 0.0309375 2.4375 0.0625 C2.4375 0.7225 2.4375 1.3825 2.4375 2.0625 C3.4275 2.3925 4.4175 2.7225 5.4375 3.0625 C4.7775 4.3825 4.1175 5.7025 3.4375 7.0625 C3.025 6.258125 2.6125 5.45375 2.1875 4.625 C0.70297669 1.92140282 0.70297669 1.92140282 -1.75 1.25 C-2.348125 1.188125 -2.94625 1.12625 -3.5625 1.0625 C-2.5625 0.0625 -2.5625 0.0625 0 0 Z " fill="#607F7A" transform="translate(152.5625,160.9375)"/>
<path d="M0 0 C-0.33 1.32 -0.66 2.64 -1 4 C-2.65 3.67 -4.3 3.34 -6 3 C-6 2.01 -6 1.02 -6 0 C-3 -1 -3 -1 0 0 Z " fill="#405956" transform="translate(172,149)"/>
<path d="M0 0 C0.66 0 1.32 0 2 0 C2 1.32 2 2.64 2 4 C2.66 4 3.32 4 4 4 C4 4.66 4 5.32 4 6 C2.02 6 0.04 6 -2 6 C-2 3 -2 3 0 0 Z " fill="#4B6A65" transform="translate(96,147)"/>
<path d="M0 0 C0.99 0 1.98 0 3 0 C3 1.32 3 2.64 3 4 C4.32 4.33 5.64 4.66 7 5 C6.67 5.99 6.34 6.98 6 8 C6 7.34 6 6.68 6 6 C4.68 6 3.36 6 2 6 C1.67 6.66 1.34 7.32 1 8 C1.33 5.69 1.66 3.38 2 1 C1.34 0.67 0.68 0.34 0 0 Z " fill="#43625D" transform="translate(66,144)"/>
<path d="M0 0 C0.66 0 1.32 0 2 0 C1.67 0.99 1.34 1.98 1 3 C0.01 3.33 -0.98 3.66 -2 4 C-2 3.34 -2 2.68 -2 2 C-1.34 2 -0.68 2 0 2 C0 1.34 0 0.68 0 0 Z M-2 4 C-2 4.66 -2 5.32 -2 6 C-3.98 6.33 -5.96 6.66 -8 7 C-8.33 6.34 -8.66 5.68 -9 5 C-6.53721199 3.768606 -4.7204945 3.92840804 -2 4 Z " fill="#638572" transform="translate(158,62)"/>
<path d="M0 0 C0.66 0.33 1.32 0.66 2 1 C2 2.65 2 4.3 2 6 C0.68 6 -0.64 6 -2 6 C-1.125 1.125 -1.125 1.125 0 0 Z " fill="#92B768" transform="translate(127,61)"/>
<path d="M0 0 C1.2065625 0.0309375 1.2065625 0.0309375 2.4375 0.0625 C1.4475 1.5475 1.4475 1.5475 0.4375 3.0625 C0.1075 2.7325 -0.2225 2.4025 -0.5625 2.0625 C-0.8925 4.7025 -1.2225 7.3425 -1.5625 10.0625 C-2.2225 9.7325 -2.8825 9.4025 -3.5625 9.0625 C-3.66015625 2.91015625 -3.66015625 2.91015625 -3.5625 1.0625 C-2.5625 0.0625 -2.5625 0.0625 0 0 Z " fill="#6F8D88" transform="translate(124.5625,187.9375)"/>
<path d="M0 0 C2.31 0 4.62 0 7 0 C6.67 1.32 6.34 2.64 6 4 C4.02 4 2.04 4 0 4 C0 2.68 0 1.36 0 0 Z " fill="#354C4A" transform="translate(120,169)"/>
<path d="M0 0 C0.66 0.33 1.32 0.66 2 1 C2 2.32 2 3.64 2 5 C-1 7 -1 7 -5 7 C-5 6.01 -5 5.02 -5 4 C-3.68 4 -2.36 4 -1 4 C-0.67 2.68 -0.34 1.36 0 0 Z " fill="#5D8B84" transform="translate(101,57)"/>
<path d="M0 0 C0.99 0.33 1.98 0.66 3 1 C2.34 2.32 1.68 3.64 1 5 C-0.66666667 5 -2.33333333 5 -4 5 C-3 2 -3 2 0 0 Z " fill="#6F8E89" transform="translate(36,162)"/>
<path d="M0 0 C1.5625 1.4375 1.5625 1.4375 3 4 C2.96846324 7.05380927 2.53266629 9.99653222 2 13 C1.34 13 0.68 13 0 13 C0.03255208 11.01432292 0.06510417 9.02864583 0.09765625 7.04296875 C0.08263217 4.79694539 0.08263217 4.79694539 -1 2 C-0.67 1.34 -0.34 0.68 0 0 Z " fill="#6D8D88" transform="translate(173,153)"/>
<path d="M0 0 C0.99 0.99 1.98 1.98 3 3 C-1.29 3 -5.58 3 -10 3 C-10 2.34 -10 1.68 -10 1 C-7.98177083 1.03255208 -5.96354167 1.06510417 -3.9453125 1.09765625 C-1.91814596 1.12649242 -1.91814596 1.12649242 0 0 Z " fill="#85A77C" transform="translate(93,82)"/>
<path d="M0 0 C-0.33 0.66 -0.66 1.32 -1 2 C-3.64 2 -6.28 2 -9 2 C-9 1.34 -9 0.68 -9 0 C-5.62182575 -0.84454356 -3.32534757 -1.10844919 0 0 Z " fill="#85AB6B" transform="translate(164,80)"/>
<path d="M0 0 C0.66 0.33 1.32 0.66 2 1 C2 2.65 2 4.3 2 6 C1.34 5.34 0.68 4.68 0 4 C-0.99 4.66 -1.98 5.32 -3 6 C-3 4.35 -3 2.7 -3 1 C-2.01 0.67 -1.02 0.34 0 0 Z " fill="#25433E" transform="translate(140,189)"/>
<path d="M0 0 C0.721875 0.103125 1.44375 0.20625 2.1875 0.3125 C0.8675 0.6425 -0.4525 0.9725 -1.8125 1.3125 C-1.8125 1.9725 -1.8125 2.6325 -1.8125 3.3125 C-2.451875 3.415625 -3.09125 3.51875 -3.75 3.625 C-4.430625 3.851875 -5.11125 4.07875 -5.8125 4.3125 C-6.1425 5.3025 -6.4725 6.2925 -6.8125 7.3125 C-7.1425 6.6525 -7.4725 5.9925 -7.8125 5.3125 C-3.50480769 0.38942308 -3.50480769 0.38942308 0 0 Z " fill="#5C8D80" transform="translate(129.8125,70.6875)"/>
<path d="M0 0 C1.32 0.33 2.64 0.66 4 1 C4 1.66 4 2.32 4 3 C5.32 3.33 6.64 3.66 8 4 C8 4.66 8 5.32 8 6 C4.74456771 5.65120368 3.98126893 4.97866739 1.75 2.4375 C1.1725 1.633125 0.595 0.82875 0 0 Z " fill="#6C9D73" transform="translate(76,70)"/>
<path d="M0 0 C0.66 0.66 1.32 1.32 2 2 C0.68 4.31 -0.64 6.62 -2 9 C-3.35303489 6.29393021 -2.7884698 4.8671629 -2 2 C-1.34 1.34 -0.68 0.68 0 0 Z " fill="#44655F" transform="translate(113,164)"/>
<path d="M0 0 C1.65 0 3.3 0 5 0 C4.67 1.65 4.34 3.3 4 5 C3.01 4.67 2.02 4.34 1 4 C0.3125 1.9375 0.3125 1.9375 0 0 Z " fill="#36544F" transform="translate(137,147)"/>
<path d="M0 0 C0.99 0 1.98 0 3 0 C2.67 2.31 2.34 4.62 2 7 C1.34 6.67 0.68 6.34 0 6 C0 4.02 0 2.04 0 0 Z " fill="#41877F" transform="translate(90,48)"/>
<path d="M0 0 C0.99 0.33 1.98 0.66 3 1 C3 3.97 3 6.94 3 10 C2.34 9.67 1.68 9.34 1 9 C1 7.02 1 5.04 1 3 C0.01 3 -0.98 3 -2 3 C-2 2.34 -2 1.68 -2 1 C-1.34 0.67 -0.68 0.34 0 0 Z " fill="#6C9277" transform="translate(110,40)"/>
<path d="M0 0 C1.32 0 2.64 0 4 0 C3.67 1.65 3.34 3.3 3 5 C1.35 4.67 -0.3 4.34 -2 4 C-1.67 3.01 -1.34 2.02 -1 1 C-1 1.66 -1 2.32 -1 3 C-0.34 3 0.32 3 1 3 C0.67 2.01 0.34 1.02 0 0 Z " fill="#334B48" transform="translate(115,169)"/>
<path d="M0 0 C2.475 0.495 2.475 0.495 5 1 C5 1.99 5 2.98 5 4 C3.35 3.67 1.7 3.34 0 3 C0 2.01 0 1.02 0 0 Z " fill="#4D8577" transform="translate(70,81)"/>
<path d="M0 0 C0.99 0.33 1.98 0.66 3 1 C2.6875 2.9375 2.6875 2.9375 2 5 C1.01 5.33 0.02 5.66 -1 6 C-0.67 4.02 -0.34 2.04 0 0 Z " fill="#64898B" transform="translate(133,72)"/>
</svg>
