<?xml version="1.0" encoding="UTF-8"?>
<svg version="1.1" xmlns="http://www.w3.org/2000/svg" width="261px" height="284px"">
<path d="M0 0 C74.25 0 148.5 0 225 0 C225 74.25 225 148.5 225 225 C150.75 225 76.5 225 0 225 C0 150.75 0 76.5 0 0 Z " fill="#74585D" transform="translate(0,0)"/>
<path d="M0 0 C74.25 0 148.5 0 225 0 C225 8.58 225 17.16 225 26 C149.97163252 26.90236593 75.02591954 27.15165323 0 26 C0 17.42 0 8.84 0 0 Z " fill="#644E54" transform="translate(0,62)"/>
<path d="M0 0 C74.25 0 148.5 0 225 0 C225 1.32 225 2.64 225 4 C193.3805493 5.38869927 161.72714158 5.15335363 130.08507836 5.12856841 C124.75357116 5.12482725 119.42208266 5.12613183 114.09057617 5.13037109 C76.04719019 5.15991892 38.03473828 4.91059482 0 4 C0 2.68 0 1.36 0 0 Z " fill="#504855" transform="translate(0,62)"/>
<path d="M0 0 C74.25 0 148.5 0 225 0 C225 0.99 225 1.98 225 3 C149.9719185 3.90507919 75.02565105 4.15607799 0 3 C0 2.01 0 1.02 0 0 Z " fill="#40353C" transform="translate(0,85)"/>
<path d="M0 0 C74.25 0 148.5 0 225 0 C225 0.99 225 1.98 225 3 C150.75 3 76.5 3 0 3 C0 2.01 0 1.02 0 0 Z " fill="#886D77" transform="translate(0,82)"/>
<path d="M0 0 C74.25 0 148.5 0 225 0 C225 0.99 225 1.98 225 3 C150.75 3 76.5 3 0 3 C0 2.01 0 1.02 0 0 Z " fill="#706171" transform="translate(0,66)"/>
</svg>
