<?xml version="1.0" encoding="UTF-8"?>
<svg version="1.1" xmlns="http://www.w3.org/2000/svg" width="225" height="225">
<path d="M0 0 C74.25 0 148.5 0 225 0 C225 74.25 225 148.5 225 225 C150.75 225 76.5 225 0 225 C0 150.75 0 76.5 0 0 Z " fill="#5C6A73" transform="translate(0,0)"/>
<path d="M0 0 C74.25 0 148.5 0 225 0 C225 18.81 225 37.62 225 57 C150.75 57 76.5 57 0 57 C0 38.19 0 19.38 0 0 Z " fill="#5E6D76" transform="translate(0,168)"/>
<path d="M0 0 C74.25 0 148.5 0 225 0 C225 8.25 225 16.5 225 25 C209.16 25.495 209.16 25.495 193 26 C193 25.01 193 24.02 193 23 C192.01 23.33 191.02 23.66 190 24 C188.3460754 24.0588992 186.68978486 24.0611055 185.03515625 24.02734375 C184.07029297 24.01509766 183.10542969 24.00285156 182.11132812 23.99023438 C180.08260969 23.95514443 178.05395576 23.91609681 176.02539062 23.87304688 C174.57616211 23.85661133 174.57616211 23.85661133 173.09765625 23.83984375 C171.77519897 23.81458618 171.77519897 23.81458618 170.42602539 23.78881836 C168.00883241 23.83680185 168.00883241 23.83680185 166.15788269 24.99900818 C163.60865018 26.18153812 161.84986991 26.24149417 159.04785156 26.22705078 C158.06713684 26.22689972 157.08642212 26.22674866 156.07598877 26.22659302 C155.02481873 26.21627045 153.97364868 26.20594788 152.890625 26.1953125 C151.80867859 26.1924826 150.72673218 26.18965271 149.61199951 26.18673706 C146.15788696 26.17554609 142.70403412 26.1504432 139.25 26.125 C136.90755583 26.11496881 134.56510759 26.1058432 132.22265625 26.09765625 C126.48168229 26.0756103 120.7408597 26.04214334 115 26 C115 25.34 115 24.68 115 24 C113.985392 24.00392761 113.985392 24.00392761 112.95028687 24.00793457 C89.80956384 24.08351173 66.67587151 23.82784352 43.53729248 23.53643799 C38.60821142 23.47476637 33.67910463 23.41522186 28.75 23.35546875 C19.1666409 23.23899571 9.5833147 23.12007085 0 23 C0 15.41 0 7.82 0 0 Z M100 26 C104.95 26 109.9 26 115 26 C115 26.33 115 26.66 115 27 C110.05 27.33 105.1 27.66 100 28 C100 27.34 100 26.68 100 26 Z M191 26 C193 27 193 27 193 27 Z M98 28 C98.99 28.495 98.99 28.495 100 29 C99.01 29.495 99.01 29.495 98 30 C98 29.34 98 28.68 98 28 Z " fill="#57656D" transform="translate(0,69)"/>
<path d="M0 0 C74.25 0 148.5 0 225 0 C225 0.99 225 1.98 225 3 C215.43 3.33 205.86 3.66 196 4 C195.67 5.98 195.34 7.96 195 10 C183.78 10.33 172.56 10.66 161 11 C161 11.33 161 11.66 161 12 C131.33333333 12 101.66666667 12 72 12 C72 11.67 72 11.34 72 11 C87.51 10.67 103.02 10.34 119 10 C119 9.67 119 9.34 119 9 C117.02 8.67 115.04 8.34 113 8 C113 7.67 113 7.34 113 7 C111.98292969 7.01740234 111.98292969 7.01740234 110.9453125 7.03515625 C104.55795793 7.09708351 98.34030324 6.77018868 92 6 C92 5.67 92 5.34 92 5 C95.63 4.67 99.26 4.34 103 4 C86.5 4 70 4 53 4 C52.67 4.99 52.34 5.98 52 7 C54.64 7.33 57.28 7.66 60 8 C59.67 8.99 59.34 9.98 59 11 C39.53 11 20.06 11 0 11 C0 7.37 0 3.74 0 0 Z " fill="#48535A" transform="translate(0,69)"/>
<path d="M0 0 C74.25 0 148.5 0 225 0 C225 2.64 225 5.28 225 8 C179.79 8 134.58 8 88 8 C87.505 7.01 87.505 7.01 87 6 C86.03441162 6.00523682 85.06882324 6.01047363 84.07397461 6.01586914 C56.03572222 6.15318714 28.02906018 5.69923876 0 5 C0 3.35 0 1.7 0 0 Z M95.4375 8.4375 C96.53481445 8.51581055 96.53481445 8.51581055 97.65429688 8.59570312 C99.43668622 8.72384876 101.2184257 8.8609816 103 9 C103 9.33 103 9.66 103 10 C95.41 10 87.82 10 80 10 C80 9.67 80 9.34 80 9 C85.29653879 8.06040376 90.08668517 8.01158885 95.4375 8.4375 Z " fill="#58666E" transform="translate(0,111)"/>
<path d="M0 0 C53.13 0 106.26 0 161 0 C161 0.33 161 0.66 161 1 C153.35038711 1.62536981 145.78664796 2.1192106 138.109375 1.9375 C135.94207054 1.85374494 135.94207054 1.85374494 134 3 C130.65765254 3.23748258 127.31649463 3.38271372 123.96875 3.5234375 C122.9890625 3.68070313 122.009375 3.83796875 121 4 C120.34 4.99 119.68 5.98 119 7 C119.33 6.67 119.66 6.34 120 6 C122.10221693 5.90031328 124.20792604 5.87031797 126.3125 5.875 C127.46363281 5.87242187 128.61476562 5.86984375 129.80078125 5.8671875 C132.41251737 5.97561122 134.52307984 6.22940262 137 7 C137 6.67 137 6.34 137 6 C139.97 6 142.94 6 146 6 C146 6.33 146 6.66 146 7 C149.3 7.33 152.6 7.66 156 8 C156 6.68 156 5.36 156 4 C156.66 4 157.32 4 158 4 C158 3.34 158 2.68 158 2 C158.99 2.495 158.99 2.495 160 3 C161.81171098 3.15306901 163.6283794 3.24946661 165.4453125 3.31640625 C166.52167969 3.35830078 167.59804687 3.40019531 168.70703125 3.44335938 C170.39892578 3.50233398 170.39892578 3.50233398 172.125 3.5625 C173.26066406 3.60568359 174.39632812 3.64886719 175.56640625 3.69335938 C178.37747768 3.7996604 181.18863945 3.90169405 184 4 C184 4.66 184 5.32 184 6 C184.77085937 5.96519531 185.54171875 5.93039063 186.3359375 5.89453125 C187.33882812 5.86746094 188.34171875 5.84039062 189.375 5.8125 C190.87160156 5.76029297 190.87160156 5.76029297 192.3984375 5.70703125 C193.25695312 5.80371094 194.11546875 5.90039062 195 6 C195.99 7.485 195.99 7.485 197 9 C131.99 9 66.98 9 0 9 C0 6.03 0 3.06 0 0 Z M179 8 C182.3 8 185.6 8 189 8 C189 7.67 189 7.34 189 7 C183.71800407 5.80011955 183.71800407 5.80011955 179 8 Z " fill="#374045" transform="translate(0,169)"/>
<path d="M0 0 C74.25 0 148.5 0 225 0 C225 1.65 225 3.3 225 5 C209.16 5.495 209.16 5.495 193 6 C193 5.01 193 4.02 193 3 C192.01 3.33 191.02 3.66 190 4 C188.3460754 4.0588992 186.68978486 4.0611055 185.03515625 4.02734375 C184.07029297 4.01509766 183.10542969 4.00285156 182.11132812 3.99023438 C180.08260969 3.95514443 178.05395576 3.91609681 176.02539062 3.87304688 C175.05923828 3.86208984 174.09308594 3.85113281 173.09765625 3.83984375 C171.77519897 3.81458618 171.77519897 3.81458618 170.42602539 3.78881836 C168.00883241 3.83680185 168.00883241 3.83680185 166.15788269 4.99900818 C163.60865018 6.18153812 161.84986991 6.24149417 159.04785156 6.22705078 C158.06713684 6.22689972 157.08642212 6.22674866 156.07598877 6.22659302 C155.02481873 6.21627045 153.97364868 6.20594788 152.890625 6.1953125 C151.80867859 6.1924826 150.72673218 6.18965271 149.61199951 6.18673706 C146.15788696 6.17554609 142.70403412 6.1504432 139.25 6.125 C136.90755583 6.11496881 134.56510759 6.1058432 132.22265625 6.09765625 C126.48168229 6.0756103 120.7408597 6.04214334 115 6 C115 5.34 115 4.68 115 4 C113.985392 4.00392761 113.985392 4.00392761 112.95028687 4.00793457 C89.80956384 4.08351173 66.67587151 3.82784352 43.53729248 3.53643799 C38.60821142 3.47476637 33.67910463 3.41522186 28.75 3.35546875 C19.16664119 3.23899572 9.58331187 3.12026875 0 3 C0 2.01 0 1.02 0 0 Z M100 6 C104.95 6 109.9 6 115 6 C115 6.33 115 6.66 115 7 C110.05 7.33 105.1 7.66 100 8 C100 7.34 100 6.68 100 6 Z M191 6 C193 7 193 7 193 7 Z M98 8 C98.99 8.495 98.99 8.495 100 9 C99.01 9.495 99.01 9.495 98 10 C98 9.34 98 8.68 98 8 Z " fill="#384146" transform="translate(0,89)"/>
<path d="M0 0 C74.25 0 148.5 0 225 0 C225 0.99 225 1.98 225 3 C203.55 3.33 182.1 3.66 160 4 C160 3.01 160 2.02 160 1 C155.763572 1.06877071 151.5281087 1.15668121 147.29248047 1.26245117 C145.85118658 1.29573178 144.40976137 1.32375404 142.96826172 1.34643555 C140.89754203 1.3799262 138.82802907 1.432233 136.7578125 1.48828125 C135.5114502 1.51446533 134.26508789 1.54064941 132.98095703 1.56762695 C131.99724121 1.71031006 131.01352539 1.85299316 130 2 C129.34 2.99 128.68 3.98 128 5 C125.375 5.6875 125.375 5.6875 123 6 C123 5.01 123 4.02 123 3 C121.92198372 3.24349686 121.92198372 3.24349686 120.82218933 3.49191284 C118.0891396 3.98395193 115.6177751 4.12688726 112.8449707 4.12939453 C111.32142723 4.13406235 111.32142723 4.13406235 109.7671051 4.13882446 C108.1131498 4.13584854 108.1131498 4.13584854 106.42578125 4.1328125 C105.25695908 4.13413177 104.0881369 4.13545105 102.88389587 4.1368103 C99.02673776 4.13874009 95.16965088 4.13234853 91.3125 4.125 C89.31454659 4.12365313 87.31659318 4.12230641 85.31863976 4.12098312 C56.87348163 4.09509765 28.4383962 3.60041012 0 3 C0 2.01 0 1.02 0 0 Z M121 6 C123 7 123 7 123 7 Z " fill="#394248" transform="translate(0,111)"/>
<path d="M0 0 C16.83 0 33.66 0 51 0 C51.495 0.99 51.495 0.99 52 2 C62.23 2 72.46 2 83 2 C83 3.98 83 5.96 83 8 C63.2 8 43.4 8 23 8 C23 7.67 23 7.34 23 7 C29.6 7 36.2 7 43 7 C43 6.34 43 5.68 43 5 C20.23 5 -2.54 5 -26 5 C-26 4.67 -26 4.34 -26 4 C-24.77023438 3.90912109 -24.77023438 3.90912109 -23.515625 3.81640625 C-21.89914063 3.69072266 -21.89914063 3.69072266 -20.25 3.5625 C-18.64898437 3.44068359 -18.64898437 3.44068359 -17.015625 3.31640625 C-14.18579391 3.11278031 -14.18579391 3.11278031 -12.2734375 2.48632812 C-9.03362753 1.79327599 -5.92018333 1.88920562 -2.609375 1.90234375 C-1.55245453 1.90446617 -1.55245453 1.90446617 -0.47418213 1.90663147 C1.76725584 1.91221067 4.00859243 1.92475927 6.25 1.9375 C7.77343605 1.94251769 9.29687368 1.94708013 10.8203125 1.95117188 C14.5469451 1.96132066 18.2733596 1.98089991 22 2 C11.11 1.505 11.11 1.505 0 1 C0 0.67 0 0.34 0 0 Z " fill="#59676F" transform="translate(142,92)"/>
<path d="M0 0 C74.25 0 148.5 0 225 0 C225 0.33 225 0.66 225 1 C206.52 1 188.04 1 169 1 C169.33 1.33 169.66 1.66 170 2 C173.27132834 1.99087496 176.53192629 1.86664558 179.80078125 1.7421875 C183.33912679 2.0273289 184.34143366 2.80838652 187 5 C176.66666667 5 166.33333333 5 156 5 C156 6.32 156 7.64 156 9 C146 9 136 9 126 9 C126 8.67 126 8.34 126 8 C124.02 7.67 122.04 7.34 120 7 C120 7.66 120 8.32 120 9 C117.36 9 114.72 9 112 9 C114.13601337 5.79597994 115.06601595 5.31989383 118.66796875 4.40234375 C122.72260849 3.70279954 126.81018379 3.48491805 130.9140625 3.24609375 C134.34121087 3.03362995 134.34121087 3.03362995 139 2 C70.195 1.505 70.195 1.505 0 1 C0 0.67 0 0.34 0 0 Z M161 3 C161 3.33 161 3.66 161 4 C163.64 4 166.28 4 169 4 C169 3.67 169 3.34 169 3 C166.36 3 163.72 3 161 3 Z " fill="#93A9B8" transform="translate(0,168)"/>
<path d="M0 0 C46.53 0 93.06 0 141 0 C141 0.33 141 0.66 141 1 C132.42 1 123.84 1 115 1 C115 1.66 115 2.32 115 3 C100.48 3 85.96 3 71 3 C71 3.66 71 4.32 71 5 C47.57 5 24.14 5 0 5 C0 3.35 0 1.7 0 0 Z " fill="#5F6E77" transform="translate(0,92)"/>
<path d="M0 0 C29.04 0 58.08 0 88 0 C88 0.99 88 1.98 88 3 C84.7 3.33 81.4 3.66 78 4 C78 4.33 78 4.66 78 5 C52.26 5 26.52 5 0 5 C0 3.35 0 1.7 0 0 Z " fill="#667680" transform="translate(0,116)"/>
<path d="M0 0 C0.98820992 0.00424484 0.98820992 0.00424484 1.99638367 0.00857544 C4.08501937 0.01970326 6.17321431 0.04479302 8.26171875 0.0703125 C9.68423857 0.08035191 11.10676515 0.08947608 12.52929688 0.09765625 C16.00274556 0.11961803 19.47593908 0.15409604 22.94921875 0.1953125 C23.44421875 1.1853125 23.44421875 1.1853125 23.94921875 2.1953125 C45.06921875 2.1953125 66.18921875 2.1953125 87.94921875 2.1953125 C87.94921875 3.1853125 87.94921875 4.1753125 87.94921875 5.1953125 C54.61921875 5.1953125 21.28921875 5.1953125 -13.05078125 5.1953125 C-12.05078125 2.1953125 -12.05078125 2.1953125 -9.92895508 1.02001953 C-6.49963811 0.03738888 -3.56754563 -0.03036209 0 0 Z " fill="#5C6A73" transform="translate(137.05078125,111.8046875)"/>
<path d="M0 0 C1.65322266 0.01740234 1.65322266 0.01740234 3.33984375 0.03515625 C4.44457031 0.04417969 5.54929687 0.05320312 6.6875 0.0625 C7.54214844 0.07410156 8.39679688 0.08570312 9.27734375 0.09765625 C8.94734375 0.75765625 8.61734375 1.41765625 8.27734375 2.09765625 C27.41734375 2.42765625 46.55734375 2.75765625 66.27734375 3.09765625 C66.27734375 3.75765625 66.27734375 4.41765625 66.27734375 5.09765625 C86.07734375 5.59265625 86.07734375 5.59265625 106.27734375 6.09765625 C106.27734375 6.42765625 106.27734375 6.75765625 106.27734375 7.09765625 C68.65734375 7.09765625 31.03734375 7.09765625 -7.72265625 7.09765625 C-7.72265625 6.76765625 -7.72265625 6.43765625 -7.72265625 6.09765625 C-11.68265625 5.76765625 -15.64265625 5.43765625 -19.72265625 5.09765625 C-19.06265625 4.10765625 -18.40265625 3.11765625 -17.72265625 2.09765625 C-14.5 1.62109375 -14.5 1.62109375 -10.66015625 1.47265625 C-6.67540785 1.3027482 -3.61391174 0.12962381 0 0 Z " fill="#687983" transform="translate(118.72265625,93.90234375)"/>
<path d="M0 0 C35.31 0 70.62 0 107 0 C107 0.99 107 1.98 107 3 C71.69 3 36.38 3 0 3 C0 2.01 0 1.02 0 0 Z " fill="#798C98" transform="translate(0,170)"/>
<path d="M0 0 C1.20970459 0.00523682 2.41940918 0.01047363 3.66577148 0.01586914 C4.97094727 0.0190918 6.27612305 0.02231445 7.62084961 0.02563477 C9.00952213 0.03399138 10.39819401 0.04245634 11.78686523 0.05102539 C13.17944179 0.05603873 14.57202005 0.06060193 15.96459961 0.06469727 C19.38456394 0.07653105 22.80444367 0.09301659 26.22436523 0.11352539 C26.22436523 3.08352539 26.22436523 6.05352539 26.22436523 9.11352539 C5.43436523 9.11352539 -15.35563477 9.11352539 -36.77563477 9.11352539 C-36.77563477 8.78352539 -36.77563477 8.45352539 -36.77563477 8.11352539 C-26.21563477 7.78352539 -15.65563477 7.45352539 -4.77563477 7.11352539 C-4.44563477 5.13352539 -4.11563477 3.15352539 -3.77563477 1.11352539 C-2.77563477 0.11352539 -2.77563477 0.11352539 0 0 Z " fill="#606F78" transform="translate(198.775634765625,71.886474609375)"/>
<path d="M0 0 C36.3 0 72.6 0 110 0 C110 0.33 110 0.66 110 1 C125.84 1.33 141.68 1.66 158 2 C158 2.33 158 2.66 158 3 C105.86 3 53.72 3 0 3 C0 2.01 0 1.02 0 0 Z " fill="#131718" transform="translate(0,101)"/>
<path d="M0 0 C28.71 0 57.42 0 87 0 C87 0.33 87 0.66 87 1 C71.16 1 55.32 1 39 1 C39 1.66 39 2.32 39 3 C39.66 3.66 40.32 4.32 41 5 C40.67 5.66 40.34 6.32 40 7 C36.37 7 32.74 7 29 7 C29 6.34 29 5.68 29 5 C19.1 5 9.2 5 -1 5 C0.32 4.01 1.64 3.02 3 2 C2.01 1.34 1.02 0.68 0 0 Z M40 8 C40 8.33 40 8.66 40 9 C16.57 9 -6.86 9 -31 9 C-31 8.67 -31 8.34 -31 8 C-23.51473923 7.84505775 -16.02936904 7.69689929 -8.5438118 7.5570364 C-5.06673153 7.49186393 -1.589725 7.42448938 1.88720703 7.35180664 C5.89865016 7.26805243 9.91022672 7.19437236 13.921875 7.12109375 C15.15049255 7.09405869 16.37911011 7.06702362 17.6449585 7.03916931 C25.16308329 6.91116452 32.52101923 7.21698828 40 8 Z " fill="#879CAA" transform="translate(31,72)"/>
<path d="M0 0 C11.88 0 23.76 0 36 0 C34.68 0.33 33.36 0.66 32 1 C32 1.66 32 2.32 32 3 C31.34 3 30.68 3 30 3 C30 3.66 30 4.32 30 5 C-2.34 5 -34.68 5 -68 5 C-68 4.34 -68 3.68 -68 3 C-44.57 3 -21.14 3 3 3 C3 2.34 3 1.68 3 1 C2.01 0.67 1.02 0.34 0 0 Z " fill="#505C64" transform="translate(68,94)"/>
<path d="M0 0 C7.59 0 15.18 0 23 0 C22.67 0.99 22.34 1.98 22 3 C24.64 3.33 27.28 3.66 30 4 C29.67 4.99 29.34 5.98 29 7 C9.53 7 -9.94 7 -30 7 C-30 6.01 -30 5.02 -30 4 C-20.43 4 -10.86 4 -1 4 C-0.67 2.68 -0.34 1.36 0 0 Z " fill="#282F33" transform="translate(30,73)"/>
<path d="M0 0 C1.84368164 0.07831055 1.84368164 0.07831055 3.72460938 0.15820312 C6.71261239 0.2860943 9.70011848 0.42094684 12.6875 0.5625 C13.1825 2.5425 13.1825 2.5425 13.6875 4.5625 C0.1575 4.5625 -13.3725 4.5625 -27.3125 4.5625 C-27.3125 3.2425 -27.3125 1.9225 -27.3125 0.5625 C-18.13578262 -0.3554589 -9.20611667 -0.43790714 0 0 Z M-20.3125 5.5625 C-20.3125 5.8925 -20.3125 6.2225 -20.3125 6.5625 C-32.8525 6.5625 -45.3925 6.5625 -58.3125 6.5625 C-58.3125 6.2325 -58.3125 5.9025 -58.3125 5.5625 C-54.18681757 5.39340837 -50.06089266 5.23302491 -45.93457031 5.08032227 C-44.53408959 5.02731281 -43.13369312 4.97202193 -41.73339844 4.91430664 C-27.414145 4.32703341 -27.414145 4.32703341 -20.3125 5.5625 Z " fill="#58666E" transform="translate(181.3125,74.4375)"/>
<path d="M0 0 C10.89 0 21.78 0 33 0 C32.67 0.66 32.34 1.32 32 2 C32.99 2.66 33.98 3.32 35 4 C34.34 4 33.68 4 33 4 C33 4.66 33 5.32 33 6 C22.44 6 11.88 6 1 6 C1 5.34 1 4.68 1 4 C0.34 3.34 -0.32 2.68 -1 2 C-0.67 1.34 -0.34 0.68 0 0 Z M-10 6 C-6.37 6 -2.74 6 1 6 C1 6.33 1 6.66 1 7 C-2.63 7 -6.26 7 -10 7 C-10 6.67 -10 6.34 -10 6 Z " fill="#4F5B63" transform="translate(70,73)"/>
<path d="M0 0 C10.29253409 -0.023216 20.5850619 -0.0409622 30.87761688 -0.05181217 C35.65735299 -0.05702077 40.43707111 -0.06408157 45.21679688 -0.07543945 C49.83334021 -0.08634037 54.4498663 -0.09229207 59.06642151 -0.09487724 C60.823779 -0.09671853 62.5811356 -0.10031405 64.33848572 -0.10573006 C66.80835985 -0.11303619 69.2781636 -0.11398693 71.74804688 -0.11352539 C72.46734375 -0.11712067 73.18664062 -0.12071594 73.92773438 -0.12442017 C78.69707077 -0.11483684 83.27658541 0.33179562 88 1 C88 1.33 88 1.66 88 2 C78.46590133 2.66655371 68.9652128 3.08653962 59.40625 3.0625 C58.42132065 3.06117065 57.4363913 3.05984131 56.4216156 3.05847168 C44.96562535 3.02280697 33.51499986 2.76689958 22.0625 2.5 C19.90300003 2.45158873 17.74349481 2.40341076 15.58398438 2.35546875 C10.38925892 2.23965102 5.19461333 2.12073775 0 2 C0 1.34 0 0.68 0 0 Z " fill="#4C585F" transform="translate(0,114)"/>
<path d="M0 0 C13.53 0 27.06 0 41 0 C41 0.99 41 1.98 41 3 C30.44 3 19.88 3 9 3 C9 3.66 9 4.32 9 5 C-7.5 5 -24 5 -41 5 C-41 4.67 -41 4.34 -41 4 C-25.49 3.67 -9.98 3.34 6 3 C6 2.67 6 2.34 6 2 C4.02 1.67 2.04 1.34 0 1 C0 0.67 0 0.34 0 0 Z " fill="#788A96" transform="translate(113,76)"/>
<path d="M0 0 C2.62561109 -0.08074203 5.24875676 -0.1403623 7.875 -0.1875 C8.99455078 -0.22520508 8.99455078 -0.22520508 10.13671875 -0.26367188 C12.3046875 -0.29296875 12.3046875 -0.29296875 16 0 C16.66 0.99 17.32 1.98 18 3 C17.67 3.66 17.34 4.32 17 5 C13.37 5 9.74 5 6 5 C6 4.34 6 3.68 6 3 C3.69 3 1.38 3 -1 3 C-0.67 2.01 -0.34 1.02 0 0 Z M17 6 C17 6.33 17 6.66 17 7 C-6.43 7 -29.86 7 -54 7 C-54 6.67 -54 6.34 -54 6 C-46.51473923 5.84505775 -39.02936904 5.69689929 -31.5438118 5.5570364 C-28.06673153 5.49186393 -24.589725 5.42448938 -21.11279297 5.35180664 C-17.10134984 5.26805243 -13.08977328 5.19437236 -9.078125 5.12109375 C-7.84950745 5.09405869 -6.62088989 5.06702362 -5.3550415 5.03916931 C2.16308329 4.91116452 9.52101923 5.21698828 17 6 Z " fill="#8DA3B1" transform="translate(54,74)"/>
<path d="M0 0 C8.58 0 17.16 0 26 0 C26 0.66 26 1.32 26 2 C26.77085937 1.96519531 27.54171875 1.93039063 28.3359375 1.89453125 C29.33882812 1.86746094 30.34171875 1.84039062 31.375 1.8125 C32.87160156 1.76029297 32.87160156 1.76029297 34.3984375 1.70703125 C35.25695312 1.80371094 36.11546875 1.90039062 37 2 C37.66 2.99 38.32 3.98 39 5 C35.07138053 5.02506235 31.14279321 5.04302799 27.21411133 5.05493164 C25.23452108 5.0623244 23.25495299 5.07504274 21.27539062 5.08789062 C13.78808436 5.10684583 6.44000023 4.86051378 -1 4 C-0.67 2.68 -0.34 1.36 0 0 Z M21 4 C24.3 4 27.6 4 31 4 C31 3.67 31 3.34 31 3 C25.71800407 1.80011955 25.71800407 1.80011955 21 4 Z " fill="#2B3236" transform="translate(158,173)"/>
<path d="M0 0 C13.2 0 26.4 0 40 0 C40 0.99 40 1.98 40 3 C20.2 3 0.4 3 -20 3 C-20 2.67 -20 2.34 -20 2 C-13.4 2 -6.8 2 0 2 C0 1.34 0 0.68 0 0 Z " fill="#2F363B" transform="translate(185,97)"/>
<path d="M0 0 C1.08899849 0.00303635 1.08899849 0.00303635 2.19999695 0.00613403 C2.94376083 0.00517731 3.68752472 0.00422058 4.4538269 0.00323486 C6.03173405 0.0025529 7.60964398 0.0044083 9.18754578 0.00857544 C11.5973599 0.013901 14.00698571 0.00864275 16.41679382 0.00222778 C17.94869528 0.00288901 19.48059661 0.00417108 21.01249695 0.00613403 C21.73242325 0.0041098 22.45234955 0.00208557 23.1940918 0 C26.53952586 0.01557254 29.60693331 0.09943641 32.8054657 1.13894653 C32.8054657 1.79894653 32.8054657 2.45894653 32.8054657 3.13894653 C9.3754657 3.13894653 -14.0545343 3.13894653 -38.1945343 3.13894653 C-38.1945343 2.80894653 -38.1945343 2.47894653 -38.1945343 2.13894653 C-36.74832703 2.1013623 -36.74832703 2.1013623 -35.27290344 2.0630188 C-31.70765588 1.96909348 -28.14260997 1.86883714 -24.57759094 1.76663208 C-23.03239141 1.72322669 -21.48714216 1.68155583 -19.94184875 1.64163208 C-17.72514334 1.58406455 -15.5086895 1.5203323 -13.29219055 1.45535278 C-12.5973909 1.43864029 -11.90259125 1.4219278 -11.18673706 1.40470886 C-7.05603214 1.27609616 -4.15597099 0.01961946 0 0 Z " fill="#6D7E88" transform="translate(38.19453430175781,93.86105346679688)"/>
<path d="M0 0 C36.63 0 73.26 0 111 0 C110.67 0.99 110.34 1.98 110 3 C109.01 3.33 108.02 3.66 107 4 C106.505 3.01 106.505 3.01 106 2 C53.53 1.505 53.53 1.505 0 1 C0 0.67 0 0.34 0 0 Z " fill="#010102" transform="translate(0,169)"/>
<path d="M0 0 C1.30388672 0.00902344 2.60777344 0.01804688 3.95117188 0.02734375 C7.15513832 0.05081603 10.35872264 0.08365273 13.5625 0.125 C13.5625 1.445 13.5625 2.765 13.5625 4.125 C9.04168034 4.15417237 4.52088512 4.1718568 0 4.1875 C-1.27681641 4.19587891 -2.55363281 4.20425781 -3.86914062 4.21289062 C-5.73022461 4.21772461 -5.73022461 4.21772461 -7.62890625 4.22265625 C-9.33348999 4.23051147 -9.33348999 4.23051147 -11.07250977 4.23852539 C-14.58958567 4.11986905 -17.96521145 3.68280511 -21.4375 3.125 C-21.4375 2.795 -21.4375 2.465 -21.4375 2.125 C-14.43305999 -0.5503801 -7.40824658 -0.0972309 0 0 Z " fill="#56636B" transform="translate(211.4375,173.875)"/>
<path d="M0 0 C0.98820992 0.00424484 0.98820992 0.00424484 1.99638367 0.00857544 C4.08501937 0.01970326 6.17321431 0.04479302 8.26171875 0.0703125 C9.68423857 0.08035191 11.10676515 0.08947608 12.52929688 0.09765625 C16.00274556 0.11961803 19.47593908 0.15409604 22.94921875 0.1953125 C22.94921875 1.1853125 22.94921875 2.1753125 22.94921875 3.1953125 C12.71921875 3.1953125 2.48921875 3.1953125 -8.05078125 3.1953125 C-8.05078125 3.8553125 -8.05078125 4.5153125 -8.05078125 5.1953125 C-9.70078125 5.1953125 -11.35078125 5.1953125 -13.05078125 5.1953125 C-12.05078125 2.1953125 -12.05078125 2.1953125 -9.92895508 1.02001953 C-6.49963811 0.03738888 -3.56754563 -0.03036209 0 0 Z " fill="#6B7B86" transform="translate(137.05078125,111.8046875)"/>
<path d="M0 0 C1.02802734 0.00966797 2.05605469 0.01933594 3.11523438 0.02929688 C4.72301758 0.06700195 4.72301758 0.06700195 6.36328125 0.10546875 C7.44673828 0.11900391 8.53019531 0.13253906 9.64648438 0.14648438 C12.3234153 0.18186232 14.99934963 0.23122686 17.67578125 0.29296875 C17.67578125 0.95296875 17.67578125 1.61296875 17.67578125 2.29296875 C13.05578125 2.29296875 8.43578125 2.29296875 3.67578125 2.29296875 C3.67578125 2.95296875 3.67578125 3.61296875 3.67578125 4.29296875 C1.36578125 4.29296875 -0.94421875 4.29296875 -3.32421875 4.29296875 C-3.32421875 4.95296875 -3.32421875 5.61296875 -3.32421875 6.29296875 C-3.98421875 6.29296875 -4.64421875 6.29296875 -5.32421875 6.29296875 C-5.32421875 6.95296875 -5.32421875 7.61296875 -5.32421875 8.29296875 C-10.73960337 8.66219952 -10.73960337 8.66219952 -13.69921875 6.79296875 C-14.23546875 6.29796875 -14.77171875 5.80296875 -15.32421875 5.29296875 C-14.23109375 5.02484375 -13.13796875 4.75671875 -12.01171875 4.48046875 C-8.42389542 3.66643634 -8.42389542 3.66643634 -6.92651367 1.73706055 C-4.64030334 -0.32342004 -3.03524904 -0.050308 0 0 Z " fill="#3E484E" transform="translate(116.32421875,168.70703125)"/>
<path d="M0 0 C10.23 0 20.46 0 31 0 C31 0.99 31 1.98 31 3 C20.44 3 9.88 3 -1 3 C-0.67 2.01 -0.34 1.02 0 0 Z " fill="#6E808A" transform="translate(194,94)"/>
<path d="M0 0 C2.9721519 -0.08046874 5.90669886 -0.02142422 8.87744141 0.10009766 C9.91320312 0.12265625 10.94896484 0.14521484 12.01611328 0.16845703 C14.57550544 0.2274292 17.13200092 0.30967198 19.68994141 0.41259766 C19.35994141 1.73259766 19.02994141 3.05259766 18.68994141 4.41259766 C10.71504013 5.74174787 2.74807422 5.50061124 -5.31005859 5.41259766 C-4.27943848 2.220189 -3.41741339 0.61038138 0 0 Z " fill="#475259" transform="translate(134.31005859375,71.58740234375)"/>
<path d="M0 0 C10.89 0 21.78 0 33 0 C32.67 0.99 32.34 1.98 32 3 C26.82972688 5.07214444 20.40215613 4.18454773 14.9375 4.1875 C13.74060547 4.19974609 12.54371094 4.21199219 11.31054688 4.22460938 C10.16521484 4.22654297 9.01988281 4.22847656 7.83984375 4.23046875 C6.79175537 4.23457764 5.74366699 4.23868652 4.66381836 4.24291992 C2 4 2 4 -1 2 C-0.67 1.34 -0.34 0.68 0 0 Z " fill="#1F2427" transform="translate(70,73)"/>
<path d="M0 0 C8.91 0 17.82 0 27 0 C25 2 25 2 21.875 2.125 C20.92625 2.08375 19.9775 2.0425 19 2 C18.67 2.99 18.34 3.98 18 5 C11.73 5 5.46 5 -1 5 C-0.67 3.35 -0.34 1.7 0 0 Z " fill="#212629" transform="translate(103,75)"/>
<path d="M0 0 C9.57 0 19.14 0 29 0 C29 0.99 29 1.98 29 3 C19.1 3 9.2 3 -1 3 C-0.67 2.01 -0.34 1.02 0 0 Z " fill="#6F808B" transform="translate(196,72)"/>
<path d="M0 0 C16.83 0 33.66 0 51 0 C51 0.99 51 1.98 51 3 C42.75 3 34.5 3 26 3 C26 2.34 26 1.68 26 1 C17.42 1 8.84 1 0 1 C0 0.67 0 0.34 0 0 Z " fill="#72848F" transform="translate(142,92)"/>
<path d="M0 0 C18.48 0 36.96 0 56 0 C56 0.33 56 0.66 56 1 C54.88439697 1.02505615 53.76879395 1.0501123 52.61938477 1.07592773 C48.4950741 1.16983421 44.3709385 1.27009514 40.24682617 1.37231445 C38.4591073 1.415727 36.67134526 1.45739729 34.88354492 1.49731445 C32.31936609 1.5548646 29.75540588 1.61860203 27.19140625 1.68359375 C26.3872377 1.70030624 25.58306915 1.71701874 24.75453186 1.73423767 C21.07330002 1.49220696 21.07330002 1.49220696 18 3 C15.57801613 3.13091805 13.47880721 3.12894808 11.12890625 2.49609375 C8.76590566 1.94544958 6.67281164 1.90187042 4.25 1.9375 C3.05117187 1.95103516 3.05117187 1.95103516 1.828125 1.96484375 C0.92320312 1.98224609 0.92320312 1.98224609 0 2 C0 1.34 0 0.68 0 0 Z M-8 2 C-5.36 2 -2.72 2 0 2 C0 2.33 0 2.66 0 3 C-2.64 3 -5.28 3 -8 3 C-8 2.67 -8 2.34 -8 2 Z M26 2 C28 3 28 3 28 3 Z " fill="#060707" transform="translate(169,169)"/>
<path d="M0 0 C0 0.99 0 1.98 0 3 C-3.94661138 3.16973431 -7.89349101 3.33002717 -11.84082031 3.48217773 C-13.83157584 3.56078534 -15.8220457 3.64652429 -17.8125 3.73242188 C-24.97802092 4.00384312 -31.89210888 4.00508222 -39 3 C-39 2.67 -39 2.34 -39 2 C-34.75057743 1.65903054 -30.5003908 1.32866136 -26.25 1 C-25.06277344 0.90460938 -23.87554687 0.80921875 -22.65234375 0.7109375 C-15.083532 0.13190272 -7.59025297 -0.12563177 0 0 Z " fill="#57656D" transform="translate(131,72)"/>
<path d="M0 0 C5.61 0 11.22 0 17 0 C17 0.99 17 1.98 17 3 C11.06 3 5.12 3 -1 3 C-0.67 2.01 -0.34 1.02 0 0 Z M7 4 C7 4.33 7 4.66 7 5 C2.38 5 -2.24 5 -7 5 C-7 4.67 -7 4.34 -7 4 C-2.20699867 2.60848348 2.15135782 3.31337311 7 4 Z " fill="#697984" transform="translate(71,116)"/>
<path d="M0 0 C1.15113281 -0.02578125 2.30226562 -0.0515625 3.48828125 -0.078125 C6.6875 0.25 6.6875 0.25 10.6875 3.25 C1.4475 3.25 -7.7925 3.25 -17.3125 3.25 C-17.3125 2.92 -17.3125 2.59 -17.3125 2.25 C-16.60222656 2.18941406 -15.89195312 2.12882813 -15.16015625 2.06640625 C-13.78150391 1.94072266 -13.78150391 1.94072266 -12.375 1.8125 C-11.45847656 1.73128906 -10.54195312 1.65007812 -9.59765625 1.56640625 C-6.13373508 1.0867864 -3.90535503 0.05212932 0 0 Z " fill="#6A7A84" transform="translate(176.3125,169.75)"/>
<path d="M0 0 C0 0.66 0 1.32 0 2 C-1.45736087 2.19491452 -2.91594593 2.38069358 -4.375 2.5625 C-5.18710938 2.66691406 -5.99921875 2.77132812 -6.8359375 2.87890625 C-9 3 -9 3 -11 2 C-11 2.66 -11 3.32 -11 4 C-14.63 4 -18.26 4 -22 4 C-22 3.34 -22 2.68 -22 2 C-14.70574226 0.35290954 -7.45746657 -0.1355903 0 0 Z " fill="#515E66" transform="translate(169,169)"/>
<path d="M0 0 C1.50433594 0.01353516 1.50433594 0.01353516 3.0390625 0.02734375 C3.80992187 0.03894531 4.58078125 0.05054688 5.375 0.0625 C5.375 1.0525 5.375 2.0425 5.375 3.0625 C-3.205 3.0625 -11.785 3.0625 -20.625 3.0625 C-20.625 2.7325 -20.625 2.4025 -20.625 2.0625 C-19.70976563 2.00191406 -18.79453125 1.94132813 -17.8515625 1.87890625 C-16.06878906 1.75322266 -16.06878906 1.75322266 -14.25 1.625 C-13.06664062 1.54378906 -11.88328125 1.46257812 -10.6640625 1.37890625 C-6.82254641 0.97895406 -3.99310056 -0.0464314 0 0 Z " fill="#6F818C" transform="translate(141.625,169.9375)"/>
<path d="M0 0 C1.65322266 0.01740234 1.65322266 0.01740234 3.33984375 0.03515625 C4.44457031 0.04417969 5.54929688 0.05320312 6.6875 0.0625 C7.54214844 0.07410156 8.39679688 0.08570312 9.27734375 0.09765625 C9.27734375 1.08765625 9.27734375 2.07765625 9.27734375 3.09765625 C1.02734375 3.09765625 -7.22265625 3.09765625 -15.72265625 3.09765625 C-15.72265625 2.76765625 -15.72265625 2.43765625 -15.72265625 2.09765625 C-14.86800781 2.03707031 -14.01335937 1.97648437 -13.1328125 1.9140625 C-11.47572266 1.78837891 -11.47572266 1.78837891 -9.78515625 1.66015625 C-8.68300781 1.57894531 -7.58085938 1.49773437 -6.4453125 1.4140625 C-3.3482876 1.05414999 -3.11794539 0.11183448 0 0 Z " fill="#62727B" transform="translate(131.72265625,93.90234375)"/>
<path d="M0 0 C0 0.66 0 1.32 0 2 C-6.93 2 -13.86 2 -21 2 C-21 1.34 -21 0.68 -21 0 C-13.81949816 -0.71148265 -7.12971149 -1.25818438 0 0 Z " fill="#4C5860" transform="translate(175,75)"/>
<path d="M0 0 C3.63 0 7.26 0 11 0 C10.67 0.99 10.34 1.98 10 3 C6.37 3 2.74 3 -1 3 C-0.67 2.01 -0.34 1.02 0 0 Z " fill="#5A6870" transform="translate(61,76)"/>
<path d="M0 0 C1.98 0 3.96 0 6 0 C6 0.99 6 1.98 6 3 C3.69 3 1.38 3 -1 3 C-0.67 2.01 -0.34 1.02 0 0 Z M-1 3 C-1 3.66 -1 4.32 -1 5 C-2.32 4.67 -3.64 4.34 -5 4 C-3 3 -3 3 -1 3 Z " fill="#5D6C75" transform="translate(114,170)"/>
<path d="M0 0 C2.31 0 4.62 0 7 0 C7 0.99 7 1.98 7 3 C4.36 3 1.72 3 -1 3 C-0.67 2.01 -0.34 1.02 0 0 Z " fill="#758793" transform="translate(149,174)"/>
<path d="M0 0 C2.97 0 5.94 0 9 0 C6 3 6 3 2.3125 3.1875 C0.6728125 3.0946875 0.6728125 3.0946875 -1 3 C-0.67 2.01 -0.34 1.02 0 0 Z " fill="#424D53" transform="translate(188,170)"/>
</svg>
