<?xml version="1.0" encoding="UTF-8"?>
<svg version="1.1" xmlns="http://www.w3.org/2000/svg" width="225" height="225">
<path d="M0 0 C74.25 0 148.5 0 225 0 C225 74.25 225 148.5 225 225 C150.75 225 76.5 225 0 225 C0 150.75 0 76.5 0 0 Z " fill="#7B7B65" transform="translate(0,0)"/>
<path d="M0 0 C1.31879402 -0.002062 1.31879402 -0.002062 2.66423035 -0.00416565 C4.10676682 0.00122726 4.10676682 0.00122726 5.57844543 0.00672913 C6.59325485 0.0065831 7.60806427 0.00643707 8.65362549 0.00628662 C12.01375961 0.00698426 15.37383855 0.01476974 18.73396301 0.02259827 C21.06138071 0.02446297 23.38879881 0.02588663 25.71621704 0.02688599 C31.84663473 0.030707 37.97702879 0.04053378 44.10743713 0.05158997 C51.46042645 0.0636099 58.81342366 0.06820831 66.16641998 0.07404327 C77.34129452 0.08374572 88.51611719 0.10290522 99.69099426 0.12025452 C99.69099426 18.93025452 99.69099426 37.74025452 99.69099426 57.12025452 C25.44099426 57.12025452 -48.80900574 57.12025452 -125.30900574 57.12025452 C-125.30900574 41.61025452 -125.30900574 26.10025452 -125.30900574 10.12025452 C-71.84900574 9.79025452 -18.38900574 9.46025452 36.69099426 9.12025452 C36.69099426 8.79025452 36.69099426 8.46025452 36.69099426 8.12025452 C35.04099426 7.79025452 33.39099426 7.46025452 31.69099426 7.12025452 C31.69099426 7.78025452 31.69099426 8.44025452 31.69099426 9.12025452 C26.08099426 9.12025452 20.47099426 9.12025452 14.69099426 9.12025452 C14.69099426 8.79025452 14.69099426 8.46025452 14.69099426 8.12025452 C16.67099426 7.46025452 18.65099426 6.80025452 20.69099426 6.12025452 C13.76099426 6.12025452 6.83099426 6.12025452 -0.30900574 6.12025452 C-0.30900574 6.45025452 -0.30900574 6.78025452 -0.30900574 7.12025452 C-2.94900574 7.12025452 -5.58900574 7.12025452 -8.30900574 7.12025452 C-7.97900574 5.14025452 -7.64900574 3.16025452 -7.30900574 1.12025452 C-4.52327221 0.19167667 -2.8742146 -0.00346709 0 0 Z M31.69099426 3.12025452 C31.69099426 3.78025452 31.69099426 4.44025452 31.69099426 5.12025452 C39.28099426 5.12025452 46.87099426 5.12025452 54.69099426 5.12025452 C54.69099426 4.46025452 54.69099426 3.80025452 54.69099426 3.12025452 C47.10099426 3.12025452 39.51099426 3.12025452 31.69099426 3.12025452 Z " fill="#82826A" transform="translate(125.30900573730469,167.87974548339844)"/>
<path d="M0 0 C74.25 0 148.5 0 225 0 C225 0.33 225 0.66 225 1 C199.47753617 1.86252439 173.9720191 2.09169065 148.4375 2.0625 C147.68338081 2.06164398 146.92926163 2.06078796 146.15229034 2.05990601 C136.76817 2.0484669 127.38408564 2.02832045 118 2 C117.67 3.32 117.34 4.64 117 6 C118.32 6.33 119.64 6.66 121 7 C121 6.67 121 6.34 121 6 C132.88 6 144.76 6 157 6 C152.76130354 8.11934823 150.61666041 8.0871068 146 8 C145.67 8.33 145.34 8.66 145 9 C150.94 9.495 150.94 9.495 157 10 C157 9.34 157 8.68 157 8 C159.97 8 162.94 8 166 8 C165.67 8.99 165.34 9.98 165 11 C110.55 11 56.1 11 0 11 C0 7.37 0 3.74 0 0 Z M157 4 C164.59 4 172.18 4 180 4 C179.67 4.66 179.34 5.32 179 6 C171.74 6 164.48 6 157 6 C157 5.34 157 4.68 157 4 Z " fill="#7B7B64" transform="translate(0,167)"/>
<path d="M0 0 C54.12 0 108.24 0 164 0 C164 0.33 164 0.66 164 1 C158.39 1 152.78 1 147 1 C147 1.66 147 2.32 147 3 C147.72445312 2.9278125 148.44890625 2.855625 149.1953125 2.78125 C154.14873449 2.30572149 159.01809963 1.87849023 164 2 C165.32 2 166.64 2 168 2 C177 2 186 2 195 2 C195 4.31 195 6.62 195 9 C120 9 45 9 -30 9 C-30 7.35 -30 5.7 -30 4 C-28.89245865 4.00222061 -27.7849173 4.00444122 -26.64381409 4.00672913 C-16.18344014 4.02704026 -5.72307023 4.04201049 4.73731899 4.05181217 C10.11451988 4.05702077 15.49170479 4.06408157 20.86889648 4.07543945 C26.06250731 4.08634036 31.25610281 4.09229207 36.4497242 4.09487724 C38.42675073 4.09671853 40.40377646 4.10031405 42.38079643 4.10573006 C45.15940001 4.11303618 47.93794103 4.11398692 50.71655273 4.11352539 C51.52576172 4.11712067 52.3349707 4.12071594 53.16870117 4.12442017 C58.51610733 4.11486916 63.69337151 3.66729737 69 3 C69 2.67 69 2.34 69 2 C46.23 1.67 23.46 1.34 0 1 C0 0.67 0 0.34 0 0 Z M121 3 C121.33 3.66 121.66 4.32 122 5 C130.39802254 5.12190678 138.64251778 4.84327749 147 4 C147 3.67 147 3.34 147 3 C138.42 3 129.84 3 121 3 Z " fill="#A0A083" transform="translate(30,72)"/>
<path d="M0 0 C74.25 0 148.5 0 225 0 C225 1.65 225 3.3 225 5 C213.12 5.495 213.12 5.495 201 6 C201 5.34 201 4.68 201 4 C174.27 4 147.54 4 120 4 C120 4.33 120 4.66 120 5 C101.84724263 5.92721074 83.73344548 6.15929375 65.56274414 6.13037109 C61.86115976 6.12456143 58.15964613 6.12804377 54.45806408 6.13394356 C51.57132934 6.13754941 48.6846116 6.1364124 45.79787636 6.13381577 C44.43075871 6.13315233 43.06363948 6.13395434 41.69652367 6.13629532 C39.80573939 6.13883437 37.9149496 6.13427839 36.02416992 6.12939453 C34.41852425 6.12820114 34.41852425 6.12820114 32.78044128 6.12698364 C30.34825453 6.0159049 28.31987626 5.70291616 26 5 C25.67 6.32 25.34 7.64 25 9 C16.75 9 8.5 9 0 9 C0 6.03 0 3.06 0 0 Z " fill="#585848" transform="translate(0,89)"/>
<path d="M0 0 C74.25 0 148.5 0 225 0 C225 0.33 225 0.66 225 1 C199.47753617 1.86252439 173.9720191 2.09169065 148.4375 2.0625 C147.68338081 2.06164398 146.92926163 2.06078796 146.15229034 2.05990601 C136.76817 2.0484669 127.38408564 2.02832045 118 2 C117.67 3.32 117.34 4.64 117 6 C118.32 6.33 119.64 6.66 121 7 C121 6.67 121 6.34 121 6 C132.88 6 144.76 6 157 6 C152.76130354 8.11934823 150.61666041 8.0871068 146 8 C145.67 8.33 145.34 8.66 145 9 C150.94 9.495 150.94 9.495 157 10 C157 9.34 157 8.68 157 8 C159.97 8 162.94 8 166 8 C165.67 8.99 165.34 9.98 165 11 C157.4926832 11.0254785 149.98537767 11.04292065 142.47802734 11.05493164 C139.92724185 11.05994205 137.37645921 11.0667522 134.82568359 11.07543945 C131.14680272 11.08764972 127.46796003 11.09326138 123.7890625 11.09765625 C122.09470566 11.10539818 122.09470566 11.10539818 120.36611938 11.11329651 C113.8468046 11.11375229 107.47129314 10.80176671 101 10 C101.99 9.67 102.98 9.34 104 9 C103.505 6.525 103.505 6.525 103 4 C69.01 3.67 35.02 3.34 0 3 C0 2.01 0 1.02 0 0 Z M157 4 C164.59 4 172.18 4 180 4 C179.67 4.66 179.34 5.32 179 6 C171.74 6 164.48 6 157 6 C157 5.34 157 4.68 157 4 Z " fill="#3B3B30" transform="translate(0,167)"/>
<path d="M0 0 C74.25 0 148.5 0 225 0 C225 0.99 225 1.98 225 3 C220.5833785 3.16787805 216.16669597 3.33409365 211.75 3.5 C210.49574219 3.54769531 209.24148437 3.59539062 207.94921875 3.64453125 C206.74394531 3.68964844 205.53867188 3.73476562 204.296875 3.78125 C202.63156738 3.8440918 202.63156738 3.8440918 200.93261719 3.90820312 C192.96530044 4.15759632 184.97145233 4 177 4 C177 3.34 177 2.68 177 2 C156.54 2 136.08 2 115 2 C114.67 2.99 114.34 3.98 114 5 C76.09315294 6.67249173 37.89846618 7.03046784 0 5 C0 3.35 0 1.7 0 0 Z M151 4 C159.58 4 168.16 4 177 4 C177 4.33 177 4.66 177 5 C174.16681141 5.16950701 171.33349012 5.33567534 168.5 5.5 C167.70851562 5.54769531 166.91703125 5.59539062 166.1015625 5.64453125 C161.057819 5.93392637 156.05202732 6.04634887 151 6 C151 5.34 151 4.68 151 4 Z " fill="#787862" transform="translate(0,71)"/>
<path d="M0 0 C1.18682625 0.00539291 1.18682625 0.00539291 2.39762878 0.01089478 C3.22682831 0.01074875 4.05602783 0.01060272 4.91035461 0.01045227 C7.664521 0.01115166 10.41862063 0.01894523 13.17277527 0.02676392 C15.07706668 0.028628 16.98135857 0.03005195 18.88565063 0.03105164 C23.90804865 0.03487754 28.93041794 0.04470843 33.95280457 0.05575562 C39.07365022 0.06596819 44.1945005 0.07054892 49.31535339 0.07559204 C59.37070459 0.08633064 69.42603442 0.10340792 79.48136902 0.12442017 C79.48136902 2.43442017 79.48136902 4.74442017 79.48136902 7.12442017 C37.24136902 7.12442017 -4.99863098 7.12442017 -48.51863098 7.12442017 C-48.51863098 6.79442017 -48.51863098 6.46442017 -48.51863098 6.12442017 C-34.32863098 5.79442017 -20.13863098 5.46442017 -5.51863098 5.12442017 C-5.84863098 5.12442017 -6.17863098 5.12442017 -6.51863098 5.12442017 C-12.85196431 5.12442017 -19.18529765 5.12442017 -25.51863098 5.12442017 C-23.13337705 2.35251758 -22.66273368 2.14269514 -18.76081848 1.64785767 C-17.30563849 1.58424324 -15.84976009 1.5352476 -14.39363098 1.49942017 C-9.21600444 1.31932881 -5.03697004 0.00966279 0 0 Z " fill="#7D7D67" transform="translate(145.5186309814453,93.87557983398438)"/>
<path d="M0 0 C14.19 0 28.38 0 43 0 C43 0.99 43 1.98 43 3 C34.585 3.495 34.585 3.495 26 4 C26 4.33 26 4.66 26 5 C15.44 5 4.88 5 -6 5 C-6 5.66 -6 6.32 -6 7 C-25 7 -44 7 -63 7 C-63 6.67 -63 6.34 -63 6 C-65.31 5.67 -67.62 5.34 -70 5 C-70 4.01 -70 3.02 -70 2 C-46.57 2 -23.14 2 1 2 C0.505 1.01 0.505 1.01 0 0 Z M-62 3 C-61.67 3.66 -61.34 4.32 -61 5 C-55.06 4.505 -55.06 4.505 -49 4 C-49 3.67 -49 3.34 -49 3 C-53.29 3 -57.58 3 -62 3 Z M-64 6 C-64 6.33 -64 6.66 -64 7 C-74.56 7 -85.12 7 -96 7 C-96 6.67 -96 6.34 -96 6 C-91.97962032 5.80179011 -87.95869488 5.6183533 -83.9375 5.4375 C-82.80376953 5.38142578 -81.67003906 5.32535156 -80.50195312 5.26757812 C-74.84433079 5.02016024 -69.56706777 4.90921023 -64 6 Z " fill="#81816A" transform="translate(96,92)"/>
<path d="M0 0 C12.21 0 24.42 0 37 0 C37 2.97 37 5.94 37 9 C17.53 9 -1.94 9 -22 9 C-22 8.67 -22 8.34 -22 8 C-21.32453125 7.96261719 -20.6490625 7.92523438 -19.953125 7.88671875 C-18.61507812 7.78810547 -18.61507812 7.78810547 -17.25 7.6875 C-15.92742187 7.60048828 -15.92742187 7.60048828 -14.578125 7.51171875 C-11.64888154 6.93030831 -10.3008236 5.84354694 -8 4 C-6.01178687 3.60235737 -4.01055661 3.26224651 -2 3 C-1.34 2.67 -0.68 2.34 0 2 C0 1.34 0 0.68 0 0 Z " fill="#38382E" transform="translate(188,169)"/>
<path d="M0 0 C74.25 0 148.5 0 225 0 C225 0.99 225 1.98 225 3 C220.5833785 3.16787805 216.16669597 3.33409365 211.75 3.5 C210.49574219 3.54769531 209.24148437 3.59539062 207.94921875 3.64453125 C206.74394531 3.68964844 205.53867188 3.73476562 204.296875 3.78125 C202.63156738 3.8440918 202.63156738 3.8440918 200.93261719 3.90820312 C192.96530044 4.15759632 184.97145233 4 177 4 C177 3.34 177 2.68 177 2 C176.26397962 2.00092179 175.52795923 2.00184359 174.7696352 2.00279331 C156.71714003 2.02504451 138.66464765 2.04150587 120.61214161 2.05181217 C111.88147801 2.05693088 103.15082367 2.06388729 94.42016602 2.07543945 C86.79525851 2.08552356 79.17035771 2.09188543 71.54544371 2.09408849 C67.52201008 2.09537275 63.49859561 2.09830861 59.47516823 2.10573006 C39.62458232 2.14095921 19.83523501 1.85103645 0 1 C0 0.67 0 0.34 0 0 Z M151 4 C159.58 4 168.16 4 177 4 C177 4.33 177 4.66 177 5 C174.16681141 5.16950701 171.33349012 5.33567534 168.5 5.5 C167.70851562 5.54769531 166.91703125 5.59539062 166.1015625 5.64453125 C161.057819 5.93392637 156.05202732 6.04634887 151 6 C151 5.34 151 4.68 151 4 Z " fill="#181813" transform="translate(0,71)"/>
<path d="M0 0 C24.09 0 48.18 0 73 0 C73 0.66 73 1.32 73 2 C80.26 2 87.52 2 95 2 C95 2.33 95 2.66 95 3 C63.65 3 32.3 3 0 3 C0 2.01 0 1.02 0 0 Z " fill="#AAAA8B" transform="translate(0,90)"/>
<path d="M0 0 C39.93 0 79.86 0 121 0 C121 0.99 121 1.98 121 3 C109.78 3.33 98.56 3.66 87 4 C87 4.33 87 4.66 87 5 C78.09 5 69.18 5 60 5 C60 4.67 60 4.34 60 4 C64.455 3.505 64.455 3.505 69 3 C69 2.67 69 2.34 69 2 C46.23 1.67 23.46 1.34 0 1 C0 0.67 0 0.34 0 0 Z " fill="#ADAD8E" transform="translate(30,72)"/>
<path d="M0 0 C7.3739824 -0.02359649 14.74795615 -0.0411479 22.12196922 -0.05181217 C25.54926296 -0.05694096 28.97653014 -0.06384599 32.40380859 -0.07543945 C50.29565621 -0.13137204 68.12757617 0.13897646 86 1 C86 1.66 86 2.32 86 3 C57.62 3 29.24 3 0 3 C0 2.01 0 1.02 0 0 Z " fill="#8D8D73" transform="translate(0,116)"/>
<path d="M0 0 C31.35 0 62.7 0 95 0 C95 0.33 95 0.66 95 1 C82.13861245 1.96854775 69.32436567 2.15587646 56.42944336 2.13037109 C53.14757833 2.12493386 49.86584568 2.13039016 46.58398438 2.13671875 C44.48697887 2.13605917 42.38997344 2.13478052 40.29296875 2.1328125 C38.82901924 2.13584885 38.82901924 2.13584885 37.335495 2.13894653 C35.97676018 2.13421829 35.97676018 2.13421829 34.59057617 2.12939453 C33.4017408 2.12820114 33.4017408 2.12820114 32.18888855 2.12698364 C30.00723333 2.00041963 28.09608734 1.60189067 26 1 C25.67 2.32 25.34 3.64 25 5 C16.75 5 8.5 5 0 5 C0 3.35 0 1.7 0 0 Z " fill="#34342B" transform="translate(0,93)"/>
<path d="M0 0 C7.59 0 15.18 0 23 0 C22.67 0.66 22.34 1.32 22 2 C14.74 2 7.48 2 0 2 C0 1.34 0 0.68 0 0 Z M-36 2 C-24.12 2 -12.24 2 0 2 C-4.23869646 4.11934823 -6.38333959 4.0871068 -11 4 C-11.33 4.33 -11.66 4.66 -12 5 C-8.04 5.33 -4.08 5.66 0 6 C0 5.34 0 4.68 0 4 C2.97 4 5.94 4 9 4 C8.67 4.99 8.34 5.98 8 7 C1.70118066 7.02541101 -4.59762539 7.04289254 -10.89648438 7.05493164 C-13.03809096 7.05995204 -15.17969414 7.06676969 -17.32128906 7.07543945 C-20.40430546 7.08760549 -23.48727643 7.09325133 -26.5703125 7.09765625 C-27.52366486 7.10281754 -28.47701721 7.10797882 -29.45925903 7.11329651 C-34.09092165 7.11368501 -38.44357251 6.95837521 -43 6 C-43 5.67 -43 5.34 -43 5 C-39.535 4.505 -39.535 4.505 -36 4 C-36 3.34 -36 2.68 -36 2 Z " fill="#3C3C31" transform="translate(157,171)"/>
<path d="M0 0 C17.16 0 34.32 0 52 0 C52 0.33 52 0.66 52 1 C49.36 1 46.72 1 44 1 C44 1.66 44 2.32 44 3 C36.08 3.495 36.08 3.495 28 4 C28 4.33 28 4.66 28 5 C21.07 5 14.14 5 7 5 C7 4.67 7 4.34 7 4 C4.69 3.67 2.38 3.34 0 3 C0 2.01 0 1.02 0 0 Z M8 1 C8.33 1.66 8.66 2.32 9 3 C14.94 2.505 14.94 2.505 21 2 C21 1.67 21 1.34 21 1 C16.71 1 12.42 1 8 1 Z M6 4 C6 4.33 6 4.66 6 5 C-4.56 5 -15.12 5 -26 5 C-26 4.67 -26 4.34 -26 4 C-21.97962032 3.80179011 -17.95869488 3.6183533 -13.9375 3.4375 C-12.80376953 3.38142578 -11.67003906 3.32535156 -10.50195312 3.26757812 C-4.84433079 3.02016024 0.43293223 2.90921023 6 4 Z " fill="#808069" transform="translate(26,94)"/>
<path d="M0 0 C1.20094299 0.00022659 2.40188599 0.00045319 3.63922119 0.00068665 C5.57689362 0.02391243 5.57689362 0.02391243 7.55371094 0.04760742 C8.89320399 0.05320566 10.23270319 0.05747468 11.57220459 0.06047058 C15.09046514 0.07190164 18.60835164 0.10135323 22.12646484 0.13458252 C25.71934957 0.16532128 29.31229499 0.17898401 32.90527344 0.1940918 C39.9496969 0.22622504 46.99386694 0.27739996 54.03808594 0.34057617 C54.03808594 1.33057617 54.03808594 2.32057617 54.03808594 3.34057617 C32.91808594 3.34057617 11.79808594 3.34057617 -9.96191406 3.34057617 C-5.70631973 0.14888042 -4.99675207 -0.03149213 0 0 Z " fill="#99997D" transform="translate(170.9619140625,117.659423828125)"/>
<path d="M0 0 C15.51 0 31.02 0 47 0 C47 0.99 47 1.98 47 3 C22.58 3 -1.84 3 -27 3 C-27 2.67 -27 2.34 -27 2 C-18.09 2 -9.18 2 0 2 C0 1.34 0 0.68 0 0 Z " fill="#3B3B30" transform="translate(178,77)"/>
<path d="M0 0 C12.21 0 24.42 0 37 0 C37 0.99 37 1.98 37 3 C32.5711372 3.16870765 28.142072 3.32914115 23.71264648 3.48217773 C22.20833433 3.5352863 20.70409783 3.59058774 19.19995117 3.64819336 C17.02799795 3.73098243 14.85588773 3.80567338 12.68359375 3.87890625 C11.37962646 3.9260376 10.07565918 3.97316895 8.73217773 4.02172852 C5.00848341 4.00004939 1.66165946 3.61545719 -2 3 C-1.34 2.67 -0.68 2.34 0 2 C0 1.34 0 0.68 0 0 Z M-8 4 C-3.71 4 0.58 4 5 4 C2.39295102 6.60704898 0.52661759 6.23905333 -3.02734375 6.265625 C-5 6 -5 6 -8 4 Z M10 4 C10.99 4.33 11.98 4.66 13 5 C12.01 5.33 11.02 5.66 10 6 C10 5.34 10 4.68 10 4 Z M-12 6 C-9.69 6 -7.38 6 -5 6 C-5 6.33 -5 6.66 -5 7 C-7.31 7 -9.62 7 -12 7 C-12 6.67 -12 6.34 -12 6 Z M8 6 C10 7 10 7 10 7 Z " fill="#3A3A2F" transform="translate(188,169)"/>
<path d="M0 0 C6.27 0 12.54 0 19 0 C18.67 0.99 18.34 1.98 18 3 C-19.90684706 4.67249173 -58.10153382 5.03046784 -96 3 C-96 2.67 -96 2.34 -96 2 C-64.32 2 -32.64 2 0 2 C0 1.34 0 0.68 0 0 Z " fill="#040403" transform="translate(96,73)"/>
<path d="M0 0 C22.77 0 45.54 0 69 0 C68.67 0.66 68.34 1.32 68 2 C59.3746575 3.45854545 50.41322912 3.08629348 41.69921875 2.87890625 C40.4968306 2.85529526 39.29444244 2.83168427 38.05561829 2.80735779 C34.26609783 2.73161149 30.47682954 2.64721146 26.6875 2.5625 C24.09701699 2.50918988 21.50652218 2.45645034 18.91601562 2.40429688 C12.61052569 2.27611903 6.30521867 2.14086193 0 2 C0 1.34 0 0.68 0 0 Z " fill="#6A6A57" transform="translate(0,114)"/>
<path d="M0 0 C1.32 0 2.64 0 4 0 C13 0 22 0 31 0 C31 0.99 31 1.98 31 3 C13.18 3 -4.64 3 -23 3 C-23 2.67 -23 2.34 -23 2 C-15.23245746 0.28747094 -7.9391939 -0.212341 0 0 Z " fill="#96967B" transform="translate(194,74)"/>
<path d="M0 0 C13.86 0 27.72 0 42 0 C42 0.33 42 0.66 42 1 C36.39 1 30.78 1 25 1 C25 1.66 25 2.32 25 3 C16.42 3 7.84 3 -1 3 C-0.67 2.01 -0.34 1.02 0 0 Z M-37 3 C-25.12 3 -13.24 3 -1 3 C-1 3.33 -1 3.66 -1 4 C-9.9946876 4.58298901 -18.98484566 5.10402635 -28 5.1875 C-29.299375 5.20167969 -30.59875 5.21585937 -31.9375 5.23046875 C-35 5 -35 5 -37 3 Z " fill="#6B6B58" transform="translate(152,72)"/>
<path d="M0 0 C4.35994067 -0.024727 8.71984414 -0.04287281 13.07983398 -0.05493164 C14.56291413 -0.05995903 16.04598933 -0.06678185 17.52905273 -0.07543945 C19.66130801 -0.08757482 21.79349773 -0.09324425 23.92578125 -0.09765625 C25.20880127 -0.10289307 26.49182129 -0.10812988 27.8137207 -0.11352539 C31 0 31 0 34 1 C34 1.66 34 2.32 34 3 C22.78 3 11.56 3 0 3 C0 2.01 0 1.02 0 0 Z " fill="#9E9E81" transform="translate(0,76)"/>
<path d="M0 0 C0.80695313 -0.00386719 1.61390625 -0.00773437 2.4453125 -0.01171875 C7.19309802 -0.00401131 11.69287442 0.33418522 16.375 1.125 C16.375 1.785 16.375 2.445 16.375 3.125 C4.495 3.455 -7.385 3.785 -19.625 4.125 C-19.295 3.135 -18.965 2.145 -18.625 1.125 C-12.37665638 0.33613097 -6.29472847 -0.03045836 0 0 Z " fill="#616150" transform="translate(161.625,75.875)"/>
<path d="M0 0 C7.92 0 15.84 0 24 0 C24 0.99 24 1.98 24 3 C10.8 3 -2.4 3 -16 3 C-16 2.67 -16 2.34 -16 2 C-10.72 2 -5.44 2 0 2 C0 1.34 0 0.68 0 0 Z " fill="#404034" transform="translate(201,175)"/>
<path d="M0 0 C12.18545456 -0.21517374 23.98396121 -0.29658079 36 2 C36 2.33 36 2.66 36 3 C23.79 3 11.58 3 -1 3 C-0.67 2.01 -0.34 1.02 0 0 Z " fill="#87876F" transform="translate(87,118)"/>
<path d="M0 0 C1.63984529 0.00031732 3.27971127 0.01165397 4.91943359 0.03173828 C6.21365738 0.03598312 6.21365738 0.03598312 7.5340271 0.04031372 C10.29544829 0.05152746 13.05654759 0.07663394 15.81787109 0.10205078 C17.68765808 0.11207905 19.55745015 0.12120517 21.42724609 0.12939453 C26.01591218 0.15147066 30.60433702 0.18600844 35.19287109 0.22705078 C35.19287109 1.21705078 35.19287109 2.20705078 35.19287109 3.22705078 C30.63965239 3.25194641 26.08647416 3.27000265 21.53320312 3.28198242 C19.98729766 3.2869817 18.44139684 3.29378331 16.89550781 3.30249023 C14.66128381 3.31475034 12.42712284 3.32032327 10.19287109 3.32470703 C9.51232666 3.32986832 8.83178223 3.3350296 8.13061523 3.34034729 C3.39299388 3.3408894 -1.12689226 2.88749433 -5.80712891 2.22705078 C-3.80712891 0.22705078 -3.80712891 0.22705078 0 0 Z " fill="#575747" transform="translate(148.80712890625,113.77294921875)"/>
<path d="M0 0 C8.58 0 17.16 0 26 0 C25.67 0.99 25.34 1.98 25 3 C16.75 3 8.5 3 0 3 C0 2.01 0 1.02 0 0 Z " fill="#535344" transform="translate(0,95)"/>
<path d="M0 0 C7.59 0 15.18 0 23 0 C23 0.33 23 0.66 23 1 C18.05 1 13.1 1 8 1 C8 1.66 8 2.32 8 3 C5.36 3 2.72 3 0 3 C0 2.01 0 1.02 0 0 Z M6 4 C6 4.33 6 4.66 6 5 C-4.56 5 -15.12 5 -26 5 C-26 4.67 -26 4.34 -26 4 C-21.97962032 3.80179011 -17.95869488 3.6183533 -13.9375 3.4375 C-12.80376953 3.38142578 -11.67003906 3.32535156 -10.50195312 3.26757812 C-4.84433079 3.02016024 0.43293223 2.90921023 6 4 Z " fill="#B1B191" transform="translate(26,94)"/>
<path d="M0 0 C0.98613281 0.00322266 1.97226563 0.00644531 2.98828125 0.00976562 C4.02082031 0.01814453 5.05335938 0.02652344 6.1171875 0.03515625 C7.67759766 0.04192383 7.67759766 0.04192383 9.26953125 0.04882812 C11.84380712 0.06063673 14.41796896 0.0771055 16.9921875 0.09765625 C16.9921875 1.08765625 16.9921875 2.07765625 16.9921875 3.09765625 C9.0721875 3.09765625 1.1521875 3.09765625 -7.0078125 3.09765625 C-7.0078125 2.43765625 -7.0078125 1.77765625 -7.0078125 1.09765625 C-4.50284246 -0.15482877 -2.79927976 -0.01608781 0 0 Z " fill="#A0A083" transform="translate(208.0078125,171.90234375)"/>
<path d="M0 0 C0 0.99 0 1.98 0 3 C-6.6 3 -13.2 3 -20 3 C-20 2.34 -20 1.68 -20 1 C-17.04170322 0.832662 -14.08336635 0.66609948 -11.125 0.5 C-9.86236328 0.42845703 -9.86236328 0.42845703 -8.57421875 0.35546875 C-7.76855469 0.31035156 -6.96289062 0.26523438 -6.1328125 0.21875 C-5.38918457 0.17685547 -4.64555664 0.13496094 -3.87939453 0.09179688 C-2.58744125 0.0286929 -1.29349349 0 0 0 Z M-46 3 C-37.42 3 -28.84 3 -20 3 C-20 3.33 -20 3.66 -20 4 C-22.83318859 4.16950701 -25.66650988 4.33567534 -28.5 4.5 C-29.29148438 4.54769531 -30.08296875 4.59539062 -30.8984375 4.64453125 C-35.942181 4.93392637 -40.94797268 5.04634887 -46 5 C-46 4.34 -46 3.68 -46 3 Z " fill="#20201A" transform="translate(197,72)"/>
<path d="M0 0 C-0.99 0.33 -1.98 0.66 -3 1 C-3.33 2.32 -3.66 3.64 -4 5 C-7.96 5 -11.92 5 -16 5 C-16.33 5.66 -16.66 6.32 -17 7 C-16.67 5.02 -16.34 3.04 -16 1 C-14.27111445 0.83044205 -12.54187557 0.66448486 -10.8125 0.5 C-9.84957031 0.4071875 -8.88664062 0.314375 -7.89453125 0.21875 C-5.24812333 0.01875156 -2.65239135 -0.03879183 0 0 Z " fill="#59594A" transform="translate(121,168)"/>
<path d="M0 0 C2.31 0 4.62 0 7 0 C7 0.66 7 1.32 7 2 C12.94 2 18.88 2 25 2 C25 2.33 25 2.66 25 3 C16.42 3 7.84 3 -1 3 C-0.67 2.01 -0.34 1.02 0 0 Z M7 4 C7 4.33 7 4.66 7 5 C1.39 5 -4.22 5 -10 5 C-10 4.67 -10 4.34 -10 4 C-4.06975197 3.02959578 1.06390334 3.10683731 7 4 Z " fill="#A0A084" transform="translate(144,112)"/>
<path d="M0 0 C9.24 0 18.48 0 28 0 C25.56357798 2.43642202 24.77588725 2.29673409 21.421875 2.44921875 C20.50792969 2.49240234 19.59398438 2.53558594 18.65234375 2.58007812 C17.69457031 2.61552734 16.73679687 2.65097656 15.75 2.6875 C14.80769531 2.73455078 13.86539063 2.78160156 12.89453125 2.83007812 C8.11028045 3.03473401 3.70903396 3.05084147 -1 2 C-0.67 1.34 -0.34 0.68 0 0 Z " fill="#666654" transform="translate(91,98)"/>
<path d="M0 0 C0.99 0.99 1.98 1.98 3 3 C-5.58 3 -14.16 3 -23 3 C-23 2.67 -23 2.34 -23 2 C-15.50008242 0.34647486 -7.67870024 -1.10203568 0 0 Z " fill="#85856E" transform="translate(194,74)"/>
<path d="M0 0 C2.97 0 5.94 0 9 0 C8.67 0.99 8.34 1.98 8 3 C-5.2 3 -18.4 3 -32 3 C-32 2.67 -32 2.34 -32 2 C-21.44 2 -10.88 2 0 2 C0 1.34 0 0.68 0 0 Z " fill="#000000" transform="translate(157,175)"/>
<path d="M0 0 C1.46513058 0.01988865 2.93011492 0.05558907 4.39453125 0.10546875 C5.14412109 0.11900391 5.89371094 0.13253906 6.66601562 0.14648438 C8.51332892 0.18178336 10.36027191 0.23558958 12.20703125 0.29296875 C12.20703125 1.28296875 12.20703125 2.27296875 12.20703125 3.29296875 C5.93703125 3.29296875 -0.33296875 3.29296875 -6.79296875 3.29296875 C-3.79296875 0.29296875 -3.79296875 0.29296875 0 0 Z " fill="#85856E" transform="translate(126.79296875,95.70703125)"/>
<path d="M0 0 C3.96 0 7.92 0 12 0 C12 0.33 12 0.66 12 1 C13.65 1.33 15.3 1.66 17 2 C17 2.33 17 2.66 17 3 C12.71 3 8.42 3 4 3 C4 2.34 4 1.68 4 1 C2.68 0.67 1.36 0.34 0 0 Z M3 3 C4.32 3.66 5.64 4.32 7 5 C5.02 5 3.04 5 1 5 C1.66 4.34 2.32 3.68 3 3 Z " fill="#919178" transform="translate(176,170)"/>
<path d="M0 0 C1.09054688 0.02320313 2.18109375 0.04640625 3.3046875 0.0703125 C4.40039062 0.08835938 5.49609375 0.10640625 6.625 0.125 C7.46804687 0.14820313 8.31109375 0.17140625 9.1796875 0.1953125 C8.8496875 1.1853125 8.5196875 2.1753125 8.1796875 3.1953125 C6.57741795 3.41776643 4.97271983 3.62277919 3.3671875 3.8203125 C2.47386719 3.93632812 1.58054688 4.05234375 0.66015625 4.171875 C-1.8203125 4.1953125 -1.8203125 4.1953125 -4.8203125 2.1953125 C-2.8203125 0.1953125 -2.8203125 0.1953125 0 0 Z " fill="#96967D" transform="translate(166.8203125,173.8046875)"/>
<path d="M0 0 C1.37478516 0.01740234 1.37478516 0.01740234 2.77734375 0.03515625 C3.69644531 0.04417969 4.61554688 0.05320313 5.5625 0.0625 C6.27277344 0.07410156 6.98304687 0.08570313 7.71484375 0.09765625 C6.39484375 0.42765625 5.07484375 0.75765625 3.71484375 1.09765625 C3.71484375 1.75765625 3.71484375 2.41765625 3.71484375 3.09765625 C0.08484375 3.09765625 -3.54515625 3.09765625 -7.28515625 3.09765625 C-5.96515625 2.43765625 -4.64515625 1.77765625 -3.28515625 1.09765625 C-2.28515625 0.09765625 -2.28515625 0.09765625 0 0 Z " fill="#82826C" transform="translate(108.28515625,173.90234375)"/>
<path d="M0 0 C3.63 0.33 7.26 0.66 11 1 C11 1.66 11 2.32 11 3 C6.71 3 2.42 3 -2 3 C-1.34 2.01 -0.68 1.02 0 0 Z " fill="#606050" transform="translate(35,96)"/>
<path d="M0 0 C2.97 0 5.94 0 9 0 C8.67 0.99 8.34 1.98 8 3 C5.03 3 2.06 3 -1 3 C-0.67 2.01 -0.34 1.02 0 0 Z " fill="#1A1A15" transform="translate(157,175)"/>
<path d="M0 0 C-0.99 0.33 -1.98 0.66 -3 1 C-3 1.66 -3 2.32 -3 3 C-5.31 3 -7.62 3 -10 3 C-7.29536552 -0.8183075 -4.37912428 -0.24787496 0 0 Z " fill="#82826B" transform="translate(201,172)"/>
</svg>
